<?xml version="1.0" encoding="utf-8"?>
<!-- Generator: Adobe Illustrator 19.1.0, SVG Export Plug-In . SVG Version: 6.00 Build 0)  -->
<!DOCTYPE svg PUBLIC "-//W3C//DTD SVG 1.1//EN" "http://www.w3.org/Graphics/SVG/1.1/DTD/svg11.dtd">
<svg version="1.1" xmlns="http://www.w3.org/2000/svg" xmlns:xlink="http://www.w3.org/1999/xlink" x="0px" y="0px"
	 viewBox="0 0 32 32" style="enable-background:new 0 0 32 32;" xml:space="preserve">
<style type="text/css">
	.st0{display:none;}
	.st1{display:inline;}
	.st2{fill:#FFFFFF;}
	.st3{fill:#ED1C24;}
	.st4{fill:#303188;}
	.st5{fill:none;stroke:#000000;stroke-width:0.1;}
	.st6{display:inline;fill:none;stroke:#000000;stroke-width:0.2;stroke-miterlimit:10;}
</style>
<g id="USA" class="st0">
	<g class="st1">
		<rect x="-5.6" y="0" class="st2" width="47.8" height="32"/>
		<g>
			<rect x="-5.6" y="0" class="st3" width="47.8" height="2.5"/>
			<rect x="-5.6" y="4.9" class="st3" width="47.8" height="2.5"/>
			<rect x="-5.6" y="9.8" class="st3" width="47.8" height="2.5"/>
			<rect x="-5.6" y="14.8" class="st3" width="47.8" height="2.5"/>
			<rect x="-5.6" y="19.7" class="st3" width="47.8" height="2.5"/>
			<rect x="-5.6" y="24.6" class="st3" width="47.8" height="2.5"/>
			<rect x="-5.6" y="29.5" class="st3" width="47.8" height="2.5"/>
		</g>
		<rect x="-5.6" y="0" class="st4" width="21.5" height="17.3"/>
		<g>
			<polygon class="st2" points="-3.8,2.1 -3.2,2.5 -3.5,1.8 -2.9,1.4 -3.6,1.4 -3.8,0.8 -4,1.4 -4.7,1.4 -4.1,1.8 -4.3,2.5 			"/>
			<polygon class="st2" points="-0.2,2.1 0.3,2.5 0.1,1.8 0.7,1.4 0,1.4 -0.2,0.8 -0.4,1.4 -1.1,1.4 -0.5,1.8 -0.7,2.5 			"/>
			<polygon class="st2" points="3.4,2.1 3.9,2.5 3.7,1.8 4.3,1.4 3.6,1.4 3.4,0.8 3.2,1.4 2.5,1.4 3.1,1.8 2.9,2.5 			"/>
			<polygon class="st2" points="7,2.1 7.5,2.5 7.3,1.8 7.9,1.4 7.2,1.4 7,0.8 6.8,1.4 6.1,1.4 6.7,1.8 6.4,2.5 			"/>
			<polygon class="st2" points="10.6,2.1 11.1,2.5 10.9,1.8 11.5,1.4 10.8,1.4 10.6,0.8 10.4,1.4 9.7,1.4 10.3,1.8 10,2.5 			"/>
			<polygon class="st2" points="14.2,2.1 14.7,2.5 14.5,1.8 15.1,1.4 14.4,1.4 14.2,0.8 14,1.4 13.3,1.4 13.8,1.8 13.6,2.5 			"/>
			<polygon class="st2" points="-2,3.8 -1.5,4.2 -1.7,3.6 -1.1,3.2 -1.8,3.2 -2,2.5 -2.2,3.2 -2.9,3.2 -2.3,3.6 -2.5,4.2 			"/>
			<polygon class="st2" points="1.6,3.8 2.1,4.2 1.9,3.6 2.5,3.2 1.8,3.2 1.6,2.5 1.4,3.2 0.7,3.2 1.3,3.6 1.1,4.2 			"/>
			<polygon class="st2" points="5.2,3.8 5.7,4.2 5.5,3.6 6.1,3.2 5.4,3.2 5.2,2.5 5,3.2 4.3,3.2 4.9,3.6 4.7,4.2 			"/>
			<polygon class="st2" points="8.8,3.8 9.3,4.2 9.1,3.6 9.7,3.2 9,3.2 8.8,2.5 8.6,3.2 7.9,3.2 8.5,3.6 8.2,4.2 			"/>
			<polygon class="st2" points="12.4,3.8 12.9,4.2 12.7,3.6 13.3,3.2 12.6,3.2 12.4,2.5 12.2,3.2 11.5,3.2 12,3.6 11.8,4.2 			"/>
			<polygon class="st2" points="-3.8,5.6 -3.2,5.9 -3.5,5.3 -2.9,4.9 -3.6,4.9 -3.8,4.3 -4,4.9 -4.7,4.9 -4.1,5.3 -4.3,5.9 			"/>
			<polygon class="st2" points="-0.2,5.6 0.3,5.9 0.1,5.3 0.7,4.9 0,4.9 -0.2,4.3 -0.4,4.9 -1.1,4.9 -0.5,5.3 -0.7,5.9 			"/>
			<polygon class="st2" points="3.4,5.6 3.9,5.9 3.7,5.3 4.3,4.9 3.6,4.9 3.4,4.3 3.2,4.9 2.5,4.9 3.1,5.3 2.9,5.9 			"/>
			<polygon class="st2" points="7,5.6 7.5,5.9 7.3,5.3 7.9,4.9 7.2,4.9 7,4.3 6.8,4.9 6.1,4.9 6.7,5.3 6.4,5.9 			"/>
			<polygon class="st2" points="10.6,5.6 11.1,5.9 10.9,5.3 11.5,4.9 10.8,4.9 10.6,4.3 10.4,4.9 9.7,4.9 10.3,5.3 10,5.9 			"/>
			<polygon class="st2" points="14.2,5.6 14.7,5.9 14.5,5.3 15.1,4.9 14.4,4.9 14.2,4.3 14,4.9 13.3,4.9 13.8,5.3 13.6,5.9 			"/>
			<polygon class="st2" points="-2,7.3 -1.5,7.7 -1.7,7 -1.1,6.7 -1.8,6.7 -2,6 -2.2,6.7 -2.9,6.7 -2.3,7 -2.5,7.7 			"/>
			<polygon class="st2" points="1.6,7.3 2.1,7.7 1.9,7 2.5,6.7 1.8,6.7 1.6,6 1.4,6.7 0.7,6.7 1.3,7 1.1,7.7 			"/>
			<polygon class="st2" points="5.2,7.3 5.7,7.7 5.5,7 6.1,6.7 5.4,6.7 5.2,6 5,6.7 4.3,6.7 4.9,7 4.7,7.7 			"/>
			<polygon class="st2" points="8.8,7.3 9.3,7.7 9.1,7 9.7,6.7 9,6.7 8.8,6 8.6,6.7 7.9,6.7 8.5,7 8.2,7.7 			"/>
			<polygon class="st2" points="12.4,7.3 12.9,7.7 12.7,7 13.3,6.7 12.6,6.7 12.4,6 12.2,6.7 11.5,6.7 12,7 11.8,7.7 			"/>
			<polygon class="st2" points="-3.8,9 -3.2,9.4 -3.5,8.8 -2.9,8.4 -3.6,8.4 -3.8,7.8 -4,8.4 -4.7,8.4 -4.1,8.8 -4.3,9.4 			"/>
			<polygon class="st2" points="-0.2,9 0.3,9.4 0.1,8.8 0.7,8.4 0,8.4 -0.2,7.8 -0.4,8.4 -1.1,8.4 -0.5,8.8 -0.7,9.4 			"/>
			<polygon class="st2" points="3.4,9 3.9,9.4 3.7,8.8 4.3,8.4 3.6,8.4 3.4,7.8 3.2,8.4 2.5,8.4 3.1,8.8 2.9,9.4 			"/>
			<polygon class="st2" points="7,9 7.5,9.4 7.3,8.8 7.9,8.4 7.2,8.4 7,7.8 6.8,8.4 6.1,8.4 6.7,8.8 6.4,9.4 			"/>
			<polygon class="st2" points="10.6,9 11.1,9.4 10.9,8.8 11.5,8.4 10.8,8.4 10.6,7.8 10.4,8.4 9.7,8.4 10.3,8.8 10,9.4 			"/>
			<polygon class="st2" points="14.2,9 14.7,9.4 14.5,8.8 15.1,8.4 14.4,8.4 14.2,7.8 14,8.4 13.3,8.4 13.8,8.8 13.6,9.4 			"/>
			<polygon class="st2" points="-2,10.8 -1.5,11.2 -1.7,10.5 -1.1,10.1 -1.8,10.1 -2,9.5 -2.2,10.1 -2.9,10.1 -2.3,10.5 -2.5,11.2 
							"/>
			<polygon class="st2" points="1.6,10.8 2.1,11.2 1.9,10.5 2.5,10.1 1.8,10.1 1.6,9.5 1.4,10.1 0.7,10.1 1.3,10.5 1.1,11.2 			"/>
			<polygon class="st2" points="5.2,10.8 5.7,11.2 5.5,10.5 6.1,10.1 5.4,10.1 5.2,9.5 5,10.1 4.3,10.1 4.9,10.5 4.7,11.2 			"/>
			<polygon class="st2" points="8.8,10.8 9.3,11.2 9.1,10.5 9.7,10.1 9,10.1 8.8,9.5 8.6,10.1 7.9,10.1 8.5,10.5 8.2,11.2 			"/>
			<polygon class="st2" points="12.4,10.8 12.9,11.2 12.7,10.5 13.3,10.1 12.6,10.1 12.4,9.5 12.2,10.1 11.5,10.1 12,10.5 
				11.8,11.2 			"/>
			<polygon class="st2" points="-3.8,12.5 -3.2,12.9 -3.5,12.3 -2.9,11.9 -3.6,11.9 -3.8,11.2 -4,11.9 -4.7,11.9 -4.1,12.3 
				-4.3,12.9 			"/>
			<polygon class="st2" points="-0.2,12.5 0.3,12.9 0.1,12.3 0.7,11.9 0,11.9 -0.2,11.2 -0.4,11.9 -1.1,11.9 -0.5,12.3 -0.7,12.9 
							"/>
			<polygon class="st2" points="3.4,12.5 3.9,12.9 3.7,12.3 4.3,11.9 3.6,11.9 3.4,11.2 3.2,11.9 2.5,11.9 3.1,12.3 2.9,12.9 			"/>
			<polygon class="st2" points="7,12.5 7.5,12.9 7.3,12.3 7.9,11.9 7.2,11.9 7,11.2 6.8,11.9 6.1,11.9 6.7,12.3 6.4,12.9 			"/>
			<polygon class="st2" points="10.6,12.5 11.1,12.9 10.9,12.3 11.5,11.9 10.8,11.9 10.6,11.2 10.4,11.9 9.7,11.9 10.3,12.3 
				10,12.9 			"/>
			<polygon class="st2" points="14.2,12.5 14.7,12.9 14.5,12.3 15.1,11.9 14.4,11.9 14.2,11.2 14,11.9 13.3,11.9 13.8,12.3 
				13.6,12.9 			"/>
			<polygon class="st2" points="-2,14.2 -1.5,14.6 -1.7,14 -1.1,13.6 -1.8,13.6 -2,13 -2.2,13.6 -2.9,13.6 -2.3,14 -2.5,14.6 			"/>
			<polygon class="st2" points="1.6,14.2 2.1,14.6 1.9,14 2.5,13.6 1.8,13.6 1.6,13 1.4,13.6 0.7,13.6 1.3,14 1.1,14.6 			"/>
			<polygon class="st2" points="5.2,14.2 5.7,14.6 5.5,14 6.1,13.6 5.4,13.6 5.2,13 5,13.6 4.3,13.6 4.9,14 4.7,14.6 			"/>
			<polygon class="st2" points="8.8,14.2 9.3,14.6 9.1,14 9.7,13.6 9,13.6 8.8,13 8.6,13.6 7.9,13.6 8.5,14 8.2,14.6 			"/>
			<polygon class="st2" points="12.4,14.2 12.9,14.6 12.7,14 13.3,13.6 12.6,13.6 12.4,13 12.2,13.6 11.5,13.6 12,14 11.8,14.6 			
				"/>
			<polygon class="st2" points="-3.8,16 -3.2,16.4 -3.5,15.7 -2.9,15.3 -3.6,15.3 -3.8,14.7 -4,15.3 -4.7,15.3 -4.1,15.7 -4.3,16.4 
							"/>
			<polygon class="st2" points="-0.2,16 0.3,16.4 0.1,15.7 0.7,15.3 0,15.3 -0.2,14.7 -0.4,15.3 -1.1,15.3 -0.5,15.7 -0.7,16.4 			
				"/>
			<polygon class="st2" points="3.4,16 3.9,16.4 3.7,15.7 4.3,15.3 3.6,15.3 3.4,14.7 3.2,15.3 2.5,15.3 3.1,15.7 2.9,16.4 			"/>
			<polygon class="st2" points="7,16 7.5,16.4 7.3,15.7 7.9,15.3 7.2,15.3 7,14.7 6.8,15.3 6.1,15.3 6.7,15.7 6.4,16.4 			"/>
			<polygon class="st2" points="10.6,16 11.1,16.4 10.9,15.7 11.5,15.3 10.8,15.3 10.6,14.7 10.4,15.3 9.7,15.3 10.3,15.7 10,16.4 
							"/>
			<polygon class="st2" points="14.2,16 14.7,16.4 14.5,15.7 15.1,15.3 14.4,15.3 14.2,14.7 14,15.3 13.3,15.3 13.8,15.7 13.6,16.4 
							"/>
		</g>
		<rect x="-5.6" y="0" class="st5" width="47.8" height="32"/>
	</g>
</g>
<g id="UK" class="st0">
	<g class="st1">
		<rect x="-7.9" y="0" class="st4" width="47.8" height="32"/>
		<polygon class="st2" points="-7.9,0 -1.9,0 10.6,8.4 10.6,0 21.4,0 21.4,8.4 33.9,0 39.9,0 39.9,0 39.9,4 30,10.6 39.9,10.6 
			39.9,21.4 30,21.4 39.9,28 39.9,32 33.9,32 21.4,23.6 21.4,32 10.6,32 10.6,23.6 -1.9,32 -7.9,32 -7.9,28 2,21.4 -7.9,21.4 
			-7.9,10.6 2,10.6 -7.9,4 		"/>
		<polygon class="st3" points="10.6,22.2 10.6,21.4 8,21.4 -7.9,32 -4.1,32 		"/>
		<polygon class="st3" points="21.4,9.9 21.4,10.6 24,10.6 39.9,0 36.1,0 		"/>
		<polygon class="st3" points="-7.9,2.5 4.2,10.6 8,10.6 -7.9,0 -7.9,0 		"/>
		<polygon class="st3" points="24,21.4 39.9,32 39.9,29.5 27.8,21.4 		"/>
		<polygon class="st3" points="19.2,12.8 19.2,0 12.8,0 12.8,12.8 -7.9,12.8 -7.9,19.2 12.8,19.2 12.8,32 19.2,32 19.2,19.2 
			39.9,19.2 39.9,12.8 		"/>
		<rect x="-7.9" y="0" class="st5" width="47.8" height="32"/>
	</g>
</g>
<g id="AUS">
	<g>
		<rect x="-7.8" y="0" class="st4" width="48.2" height="32.3"/>
		<polygon class="st2" points="32.7,18.5 31.8,17.9 31,18.5 31.3,17.5 30.4,16.9 31.5,16.9 31.8,15.8 32.2,16.9 33.2,16.9 
			32.4,17.5 		"/>
		<polygon class="st2" points="3.9,26 6,28.3 5.6,25.2 8.6,25 6,23.3 7.6,20.9 4.8,21.8 3.9,19 2.9,21.8 0.1,20.9 1.7,23.3 -0.9,25 
			2.1,25.2 1.7,28.3 		"/>
		<polygon class="st2" points="22.3,14.8 23.3,15.8 23.1,14.4 24.5,14.3 23.3,13.5 24.1,12.4 22.8,12.8 22.3,11.5 21.9,12.8 
			20.6,12.4 21.3,13.5 20.1,14.3 21.5,14.4 21.3,15.8 		"/>
		<polygon class="st2" points="28.5,6.1 29.5,7.1 29.3,5.7 30.7,5.6 29.5,4.8 30.3,3.7 29,4.1 28.5,2.8 28.1,4.1 26.8,3.7 27.5,4.8 
			26.3,5.6 27.7,5.7 27.5,7.1 		"/>
		<polygon class="st2" points="28.5,27.7 29.5,28.7 29.3,27.3 30.7,27.2 29.5,26.4 30.3,25.3 29,25.8 28.5,24.5 28.1,25.8 
			26.8,25.3 27.5,26.4 26.3,27.2 27.7,27.3 27.5,28.7 		"/>
		<polygon class="st2" points="35.4,12.5 36.3,13.6 36.2,12.1 37.6,12 36.4,11.3 37.1,10.1 35.8,10.6 35.4,9.3 34.9,10.6 33.6,10.1 
			34.4,11.3 33.2,12 34.6,12.1 34.4,13.6 		"/>
		<polygon class="st2" points="-7.8,0 -4.8,0 1.4,4.2 1.4,0 6.8,0 6.8,4.2 13,0 16,0 16,0 16,2 11.1,5.3 16,5.3 16,10.6 11.1,10.6 
			16,13.9 16,15.9 13,15.9 6.8,11.8 6.8,15.9 1.4,15.9 1.4,11.7 -4.8,15.9 -7.8,15.9 -7.8,13.9 -2.9,10.6 -7.8,10.6 -7.8,5.3 
			-2.9,5.3 -7.8,2 		"/>
		<polygon class="st3" points="1.4,11 1.4,10.6 0.1,10.6 -7.8,15.9 -5.9,15.9 		"/>
		<polygon class="st3" points="6.8,4.9 6.8,5.3 8.1,5.3 16,0 14.1,0 		"/>
		<polygon class="st3" points="-7.8,1.3 -1.8,5.3 0.1,5.3 -7.8,0 -7.8,0 		"/>
		<polygon class="st3" points="8.1,10.6 16,15.9 16,14.7 10,10.6 		"/>
		<polygon class="st3" points="5.7,6.4 5.7,0 2.5,0 2.5,6.4 -7.8,6.4 -7.8,9.6 2.5,9.6 2.5,15.9 5.7,15.9 5.7,9.6 16,9.6 16,6.4 		
			"/>
		<rect x="-7.8" y="0" class="st5" width="48.2" height="32.3"/>
	</g>
</g>
<g id="Layer_1" class="st0">
	<circle class="st6" cx="16" cy="16" r="16"/>
</g>
</svg>
