<?xml version="1.0" encoding="utf-8"?>
<!-- Generator: Adobe Illustrator 19.1.0, SVG Export Plug-In . SVG Version: 6.00 Build 0)  -->
<!DOCTYPE svg PUBLIC "-//W3C//DTD SVG 1.1//EN" "http://www.w3.org/Graphics/SVG/1.1/DTD/svg11.dtd">
<svg version="1.1" id="Layer_1" xmlns="http://www.w3.org/2000/svg" xmlns:xlink="http://www.w3.org/1999/xlink" x="0px" y="0px"
	 viewBox="32 -0.9 83.5 20.9" style="enable-background:new 32 -0.9 83.5 20.9;" xml:space="preserve">
<style type="text/css">
	.st0{fill:#F0B41C;}
	.st1{fill:#808184;}
</style>
<g>
	<path class="st0" d="M36.8,20c-0.8,0-1.5-0.1-2.3-0.3c-0.7-0.2-1.4-0.4-2-0.7l0.9-2c0.5,0.3,1,0.5,1.5,0.6c0.5,0.2,1.1,0.2,1.7,0.2
		c0.9,0,1.6-0.2,2.1-0.7c0.4-0.4,0.7-1.1,0.7-2v-0.5c-0.4,0.5-0.8,0.9-1.3,1.1c-0.5,0.3-1.1,0.4-1.8,0.4c-0.6,0-1.1-0.1-1.6-0.3
		c-0.5-0.2-1-0.5-1.4-0.9c-0.4-0.4-0.7-0.8-0.9-1.4c-0.2-0.6-0.3-1.2-0.3-1.9v0c0-0.7,0.1-1.4,0.4-1.9c0.2-0.6,0.6-1,0.9-1.4
		c0.4-0.4,0.8-0.7,1.4-0.9c0.5-0.2,1-0.3,1.6-0.3c0.7,0,1.3,0.1,1.8,0.4c0.5,0.3,0.9,0.6,1.3,1V7.5h2.7v7.4c0,1.7-0.4,3-1.2,3.8
		c-0.5,0.5-1,0.8-1.7,1C38.6,19.9,37.8,20,36.8,20z M37.1,14.1c0.3,0,0.6-0.1,0.9-0.2c0.3-0.1,0.5-0.3,0.7-0.5
		c0.2-0.2,0.4-0.4,0.5-0.7c0.1-0.3,0.2-0.6,0.2-0.9v0c0-0.3-0.1-0.6-0.2-0.9c-0.1-0.3-0.3-0.5-0.5-0.7c-0.2-0.2-0.5-0.3-0.7-0.5
		c-0.3-0.1-0.6-0.2-0.9-0.2c-0.3,0-0.6,0.1-0.9,0.2c-0.3,0.1-0.5,0.3-0.7,0.5c-0.2,0.2-0.4,0.4-0.5,0.7c-0.1,0.3-0.2,0.6-0.2,0.9v0
		c0,0.7,0.2,1.2,0.7,1.6C35.9,13.9,36.5,14.1,37.1,14.1z"/>
	<path class="st0" d="M47,17.3c-1,0-1.8-0.3-2.4-0.9c-0.6-0.6-0.8-1.5-0.8-2.6V7.5h2.7v5.3c0,0.6,0.1,1.1,0.4,1.5
		c0.3,0.3,0.7,0.5,1.2,0.5c0.5,0,0.9-0.2,1.2-0.5c0.3-0.3,0.5-0.8,0.5-1.5V7.5h2.7v9.6h-2.7v-1.4c-0.2,0.2-0.3,0.4-0.5,0.6
		c-0.2,0.2-0.4,0.4-0.6,0.5c-0.2,0.1-0.5,0.3-0.8,0.3C47.7,17.2,47.4,17.3,47,17.3z"/>
	<path class="st0" d="M54.2,7.5h2.7v1.4c0.2-0.2,0.3-0.4,0.5-0.6c0.2-0.2,0.4-0.4,0.6-0.5c0.2-0.1,0.5-0.3,0.8-0.3
		c0.3-0.1,0.6-0.1,0.9-0.1c0.6,0,1.2,0.1,1.6,0.4c0.5,0.3,0.8,0.6,1.1,1.1c0.4-0.5,0.9-0.9,1.4-1.1c0.5-0.3,1.1-0.4,1.8-0.4
		c1,0,1.8,0.3,2.4,0.9c0.6,0.6,0.9,1.5,0.9,2.6v6.2h-2.7v-5.3c0-0.6-0.1-1.1-0.4-1.5C65.4,10,65,9.8,64.5,9.8
		c-0.5,0-0.9,0.2-1.2,0.5c-0.3,0.3-0.4,0.8-0.4,1.5v5.3h-2.7v-5.3c0-0.6-0.1-1.1-0.4-1.5c-0.3-0.3-0.7-0.5-1.2-0.5
		c-0.5,0-0.9,0.2-1.2,0.5c-0.3,0.3-0.4,0.8-0.4,1.5v5.3h-2.7V7.5z"/>
	<path class="st1" d="M74.7,20c-0.8,0-1.5-0.1-2.3-0.3c-0.7-0.2-1.4-0.4-2-0.7l0.9-2c0.5,0.3,1,0.5,1.5,0.6c0.5,0.2,1.1,0.2,1.7,0.2
		c0.9,0,1.6-0.2,2.1-0.7c0.4-0.4,0.7-1.1,0.7-2v-0.5c-0.4,0.5-0.8,0.9-1.3,1.1c-0.5,0.3-1.1,0.4-1.8,0.4c-0.6,0-1.1-0.1-1.6-0.3
		c-0.5-0.2-1-0.5-1.4-0.9c-0.4-0.4-0.7-0.8-0.9-1.4c-0.2-0.6-0.3-1.2-0.3-1.9v0c0-0.7,0.1-1.4,0.4-1.9c0.2-0.6,0.6-1,0.9-1.4
		c0.4-0.4,0.8-0.7,1.4-0.9c0.5-0.2,1-0.3,1.6-0.3c0.7,0,1.3,0.1,1.8,0.4c0.5,0.3,0.9,0.6,1.3,1V7.5h2.7v7.4c0,1.7-0.4,3-1.2,3.8
		c-0.5,0.5-1,0.8-1.7,1C76.5,19.9,75.7,20,74.7,20z M75,14.1c0.3,0,0.6-0.1,0.9-0.2c0.3-0.1,0.5-0.3,0.7-0.5
		c0.2-0.2,0.4-0.4,0.5-0.7c0.1-0.3,0.2-0.6,0.2-0.9v0c0-0.3-0.1-0.6-0.2-0.9c-0.1-0.3-0.3-0.5-0.5-0.7C76.5,10,76.3,9.9,76,9.7
		c-0.3-0.1-0.6-0.2-0.9-0.2c-0.3,0-0.6,0.1-0.9,0.2c-0.3,0.1-0.5,0.3-0.7,0.5c-0.2,0.2-0.4,0.4-0.5,0.7c-0.1,0.3-0.2,0.6-0.2,0.9v0
		c0,0.7,0.2,1.2,0.7,1.6C73.8,13.9,74.4,14.1,75,14.1z"/>
	<path class="st1" d="M84.9,17.3c-1,0-1.8-0.3-2.4-0.9c-0.6-0.6-0.9-1.5-0.9-2.6V7.5h2.7v5.3c0,0.6,0.1,1.1,0.4,1.5
		c0.3,0.3,0.7,0.5,1.2,0.5c0.5,0,0.9-0.2,1.2-0.5c0.3-0.3,0.5-0.8,0.5-1.5V7.5h2.7v9.6h-2.7v-1.4c-0.2,0.2-0.3,0.4-0.5,0.6
		c-0.2,0.2-0.4,0.4-0.6,0.5c-0.2,0.1-0.5,0.3-0.8,0.3C85.6,17.2,85.3,17.3,84.9,17.3z"/>
	<rect x="105.6" y="5.9" class="st0" width="3.2" height="3.2"/>
	<path class="st1" d="M105.6,9.9h-0.8V9V7.5c-0.3-0.1-0.7-0.1-1.2-0.1c-0.7,0-1.2,0.1-1.8,0.4c-0.5,0.3-1,0.6-1.4,1.1
		c-0.3-0.5-0.6-0.9-1.1-1.1c-0.5-0.3-1-0.4-1.6-0.4c-0.3,0-0.7,0-0.9,0.1c-0.3,0.1-0.5,0.2-0.8,0.3c-0.2,0.1-0.4,0.3-0.6,0.5
		c-0.2,0.2-0.4,0.4-0.5,0.6V7.5h-2.7v9.6h2.7v-5.3c0-0.6,0.1-1.1,0.4-1.5c0.3-0.3,0.7-0.5,1.2-0.5c0.5,0,0.9,0.2,1.2,0.5
		c0.3,0.3,0.4,0.8,0.4,1.5v5.3h2.7v-5.3c0-0.6,0.1-1.1,0.4-1.5c0.3-0.3,0.7-0.5,1.2-0.5c0.5,0,0.9,0.2,1.2,0.5
		c0.3,0.3,0.4,0.8,0.4,1.5v5.3h2.7v-6.2c0-0.4,0-0.7-0.1-1H105.6z"/>
	<path class="st1" d="M113.7,0.9v3.2h-3.2V0.9H113.7 M115.5-0.9h-6.8v6.8h6.8V-0.9L115.5-0.9z"/>
</g>
</svg>
