<?xml version="1.0" encoding="utf-8"?>
<!-- Generator: Adobe Illustrator 19.2.0, SVG Export Plug-In . SVG Version: 6.00 Build 0)  -->
<svg version="1.1" id="Layer_1" xmlns="http://www.w3.org/2000/svg" xmlns:xlink="http://www.w3.org/1999/xlink" x="0px" y="0px"
	 viewBox="0 0 441.4 114.6" style="enable-background:new 0 0 441.4 114.6;" xml:space="preserve">
<style type="text/css">
	.st0{fill:#FFFFFF;}
</style>
<path class="st0" d="M25.4,114.6c-8.5,0-16.2-2-22.9-6.1l4.4-8.8c2.7,1.7,5.6,3,8.5,4c3,1,6.2,1.5,9.7,1.5c5.2,0,9.3-1.3,12-4
	c2.8-2.7,4.2-6.6,4.2-11.8v-4c-2.1,2.8-4.6,5-7.5,6.8c-2.8,1.7-6.4,2.6-10.6,2.6c-3,0-6-0.5-8.7-1.7c-2.8-1.1-5.3-2.7-7.4-4.7
	c-2.2-2-3.9-4.5-5.2-7.5C0.6,77.9,0,74.5,0,70.8v-0.2c0-3.8,0.6-7.1,1.9-10.1c1.3-3,3-5.5,5.2-7.6c2.2-2,4.7-3.6,7.5-4.7
	s5.7-1.7,8.7-1.7c4.3,0,7.9,0.9,10.7,2.6c2.8,1.7,5.2,3.8,7.2,6.2v-7.7H53v40.8c0,8.5-2.2,15-6.5,19.3c-2.3,2.3-5.3,4.1-8.8,5.2
	C34.2,114,30.1,114.6,25.4,114.6z M26.4,84.8c2,0,3.9-0.3,5.8-1c1.8-0.7,3.4-1.7,4.8-2.9c1.4-1.3,2.4-2.8,3.3-4.5
	c0.8-1.7,1.2-3.6,1.2-5.7v-0.2c0-2.1-0.4-4.1-1.2-5.8c-0.8-1.7-1.9-3.2-3.3-4.5c-1.4-1.3-3-2.2-4.8-2.9c-1.8-0.7-3.8-1-5.8-1
	c-2.1,0-4,0.3-5.7,1c-1.7,0.7-3.3,1.6-4.6,2.9c-1.3,1.2-2.4,2.7-3.1,4.4c-0.7,1.7-1.1,3.6-1.1,5.8v0.2c0,2.1,0.4,4.1,1.2,5.8
	c0.8,1.7,1.8,3.2,3.1,4.5c1.3,1.3,2.8,2.2,4.6,2.9C22.5,84.5,24.4,84.8,26.4,84.8z"/>
<path class="st0" d="M79.5,99.9c-5.8,0-10.3-1.8-13.5-5.3c-3.2-3.6-4.7-8.3-4.7-14.4V47.6h11.8v29.1c0,4,0.9,7.1,2.8,9.3
	c1.9,2.2,4.6,3.2,8,3.2c3.4,0,6.2-1.1,8.3-3.3c2.1-2.2,3.2-5.3,3.2-9.3V47.6h11.8v51.3H95.4v-8c-1.7,2.5-3.8,4.6-6.3,6.4
	C86.6,99,83.4,99.9,79.5,99.9z"/>
<path class="st0" d="M116.2,47.6h11.8v7.8c0.8-1.2,1.7-2.3,2.7-3.3c1-1,2.1-2,3.3-2.8c1.3-0.9,2.7-1.5,4.3-2
	c1.6-0.5,3.3-0.7,5.3-0.7c3.7,0,6.8,0.8,9.3,2.5c2.5,1.7,4.5,3.9,5.9,6.6c2.1-2.7,4.5-4.9,7.3-6.6c2.8-1.7,6.2-2.5,10.1-2.5
	c5.6,0,10.1,1.7,13.2,5.1c3.2,3.4,4.8,8.2,4.8,14.5v32.7h-11.8V69.8c0-4.1-0.9-7.2-2.7-9.3c-1.8-2.1-4.3-3.2-7.6-3.2
	c-3.2,0-5.8,1.1-7.9,3.2c-2,2.2-3,5.3-3,9.4v28.9h-11.8V69.7c0-4-0.9-7.1-2.7-9.2c-1.8-2.1-4.3-3.2-7.6-3.2c-3.3,0-5.9,1.1-7.9,3.4
	c-2,2.3-3,5.4-3,9.4v28.8h-11.8V47.6z"/>
<path class="st0" d="M279.5,99.9c-5.8,0-10.3-1.8-13.5-5.3c-3.2-3.6-4.7-8.3-4.7-14.4V47.6h11.8v29.1c0,4,0.9,7.1,2.8,9.3
	c1.9,2.2,4.6,3.2,8,3.2c3.4,0,6.2-1.1,8.3-3.3c2.1-2.2,3.2-5.3,3.2-9.3V47.6h11.8v51.3h-11.8v-8c-1.7,2.5-3.8,4.6-6.3,6.4
	C286.6,99,283.4,99.9,279.5,99.9z"/>
<path class="st0" d="M383.6,57.7v-10c-2.2-0.8-4.6-1.2-7.3-1.2c-3.9,0-7.3,0.8-10.1,2.5c-2.8,1.7-5.3,3.9-7.3,6.6
	c-1.4-2.7-3.3-4.9-5.9-6.6c-2.5-1.7-5.7-2.5-9.3-2.5c-1.9,0-3.7,0.2-5.3,0.7c-1.6,0.5-3,1.2-4.3,2c-1.3,0.8-2.4,1.8-3.3,2.8
	c-1,1-1.9,2.2-2.7,3.3v-7.8h-11.8v51.3h11.8V70.1c0-4,1-7.1,3-9.4c2-2.3,4.6-3.4,7.9-3.4c3.3,0,5.8,1.1,7.6,3.2
	c1.8,2.1,2.7,5.2,2.7,9.2v29.2h11.8V70c0-4.1,1-7.3,3-9.4s4.7-3.2,7.9-3.2c3.3,0,5.8,1.1,7.6,3.2c1.8,2.1,2.7,5.2,2.7,9.3v29.1h11.8
	V66.1c0-3.2-0.4-6-1.2-8.4H383.6z"/>
<path class="st0" d="M431.6,9.8V27h-17.2V9.8H431.6 M441.4,0h-36.8v36.8h36.8V0L441.4,0z"/>
<rect x="387.5" y="36.7" class="st0" width="17.2" height="17.2"/>
<path class="st0" d="M225.5,114.6c-8.5,0-16.2-2-22.9-6.1l4.4-8.8c2.7,1.7,5.6,3,8.5,4c3,1,6.2,1.5,9.7,1.5c5.2,0,9.3-1.3,12-4
	c2.8-2.7,4.2-6.6,4.2-11.8v-4c-2.1,2.8-4.6,5-7.5,6.8c-2.8,1.7-6.4,2.6-10.6,2.6c-3,0-6-0.5-8.7-1.7c-2.8-1.1-5.3-2.7-7.4-4.7
	c-2.2-2-3.9-4.5-5.2-7.5c-1.3-3-1.9-6.3-1.9-10.1v-0.2c0-3.8,0.6-7.1,1.9-10.1c1.3-3,3-5.5,5.2-7.6c2.2-2,4.7-3.6,7.5-4.7
	c2.8-1.1,5.7-1.7,8.7-1.7c4.3,0,7.9,0.9,10.7,2.6c2.8,1.7,5.2,3.8,7.2,6.2v-7.7H253v40.8c0,8.5-2.2,15-6.5,19.3
	c-2.3,2.3-5.3,4.1-8.8,5.2C234.2,114,230.1,114.6,225.5,114.6z M225.5,114.6c-8.5,0-16.2-2-22.9-6.1l4.4-8.8c2.7,1.7,5.6,3,8.5,4
	c3,1,6.2,1.5,9.7,1.5c5.2,0,9.3-1.3,12-4c2.8-2.7,4.2-6.6,4.2-11.8v-4c-2.1,2.8-4.6,5-7.5,6.8c-2.8,1.7-6.4,2.6-10.6,2.6
	c-3,0-6-0.5-8.7-1.7c-2.8-1.1-5.3-2.7-7.4-4.7c-2.2-2-3.9-4.5-5.2-7.5c-1.3-3-1.9-6.3-1.9-10.1v-0.2c0-3.8,0.6-7.1,1.9-10.1
	c1.3-3,3-5.5,5.2-7.6c2.2-2,4.7-3.6,7.5-4.7c2.8-1.1,5.7-1.7,8.7-1.7c4.3,0,7.9,0.9,10.7,2.6c2.8,1.7,5.2,3.8,7.2,6.2v-7.7H253v40.8
	c0,8.5-2.2,15-6.5,19.3c-2.3,2.3-5.3,4.1-8.8,5.2C234.2,114,230.1,114.6,225.5,114.6z M226.4,84.8c2,0,3.9-0.3,5.8-1
	c1.8-0.7,3.4-1.7,4.8-2.9c1.4-1.3,2.4-2.8,3.3-4.5c0.8-1.7,1.2-3.6,1.2-5.7v-0.2c0-2.1-0.4-4.1-1.2-5.8c-0.8-1.7-1.9-3.2-3.3-4.5
	c-1.4-1.3-3-2.2-4.8-2.9c-1.8-0.7-3.8-1-5.8-1c-2.1,0-4,0.3-5.7,1c-1.7,0.7-3.3,1.6-4.6,2.9c-1.3,1.2-2.4,2.7-3.1,4.4
	c-0.7,1.7-1.1,3.6-1.1,5.8v0.2c0,2.1,0.4,4.1,1.2,5.8c0.8,1.7,1.8,3.2,3.1,4.5c1.3,1.3,2.8,2.2,4.6,2.9
	C222.5,84.5,224.4,84.8,226.4,84.8z M226.4,84.8c2,0,3.9-0.3,5.8-1c1.8-0.7,3.4-1.7,4.8-2.9c1.4-1.3,2.4-2.8,3.3-4.5
	c0.8-1.7,1.2-3.6,1.2-5.7v-0.2c0-2.1-0.4-4.1-1.2-5.8c-0.8-1.7-1.9-3.2-3.3-4.5c-1.4-1.3-3-2.2-4.8-2.9c-1.8-0.7-3.8-1-5.8-1
	c-2.1,0-4,0.3-5.7,1c-1.7,0.7-3.3,1.6-4.6,2.9c-1.3,1.2-2.4,2.7-3.1,4.4c-0.7,1.7-1.1,3.6-1.1,5.8v0.2c0,2.1,0.4,4.1,1.2,5.8
	c0.8,1.7,1.8,3.2,3.1,4.5c1.3,1.3,2.8,2.2,4.6,2.9C222.5,84.5,224.4,84.8,226.4,84.8z"/>
</svg>
