<?xml version="1.0" encoding="utf-8"?>
<!-- Generator: Adobe Illustrator 19.2.0, SVG Export Plug-In . SVG Version: 6.00 Build 0)  -->
<svg version="1.1" id="Layer_1" xmlns="http://www.w3.org/2000/svg" xmlns:xlink="http://www.w3.org/1999/xlink" x="0px" y="0px"
	 viewBox="0 0 103.5 15.3" style="enable-background:new 0 0 103.5 15.3;" xml:space="preserve">
<style type="text/css">
	.st0{fill:#FFFFFF;}
</style>
<g>
	<path class="st0" d="M0.5,11.2l1.4-1.6c0.9,0.8,1.9,1.3,3.1,1.3c0.9,0,1.5-0.4,1.5-1v0c0-0.6-0.4-0.9-2.1-1.3C2.3,7.9,1,7.4,1,5.3
		v0c0-1.9,1.5-3.2,3.7-3.2c1.5,0,2.8,0.5,3.9,1.3L7.3,5.2c-0.9-0.6-1.8-1-2.7-1S3.2,4.5,3.2,5v0c0,0.7,0.4,0.9,2.3,1.4
		C7.6,7,8.8,7.8,8.8,9.6v0c0,2.1-1.6,3.2-3.8,3.2C3.4,12.9,1.8,12.3,0.5,11.2z"/>
	<path class="st0" d="M19.1,7.5L19.1,7.5c0-3,2.3-5.4,5.6-5.4c3.2,0,5.5,2.4,5.5,5.4v0c0,3-2.3,5.4-5.6,5.4
		C21.4,12.9,19.1,10.5,19.1,7.5z M27.8,7.5L27.8,7.5c0-1.8-1.3-3.3-3.2-3.3c-1.9,0-3.1,1.5-3.1,3.3v0c0,1.8,1.3,3.3,3.2,3.3
		S27.8,9.3,27.8,7.5z"/>
	<path class="st0" d="M40.6,7.5L40.6,7.5c0-3,2.2-5.4,5.5-5.4c2,0,3.2,0.7,4.1,1.6l-1.5,1.7c-0.8-0.7-1.6-1.2-2.7-1.2
		c-1.8,0-3,1.5-3,3.3v0c0,1.8,1.2,3.3,3,3.3c1.2,0,1.9-0.5,2.8-1.2l1.5,1.5c-1.1,1.2-2.3,1.9-4.3,1.9C42.9,12.9,40.6,10.5,40.6,7.5z
		"/>
	<path class="st0" d="M60.9,2.2h2.3v10.5h-2.3V2.2z"/>
	<path class="st0" d="M78.2,2.2h2.1l4.5,10.5h-2.4l-1-2.3H77l-1,2.3h-2.3L78.2,2.2z M80.6,8.3l-1.4-3.4l-1.4,3.4H80.6z"/>
	<path class="st0" d="M95.2,2.2h2.3v8.4h5.2v2.1h-7.5V2.2z"/>
</g>
</svg>
