<?xml version="1.0" encoding="utf-8"?>
<!-- Generator: Adobe Illustrator 19.2.0, SVG Export Plug-In . SVG Version: 6.00 Build 0)  -->
<svg version="1.1" id="Layer_1" xmlns="http://www.w3.org/2000/svg" xmlns:xlink="http://www.w3.org/1999/xlink" x="0px" y="0px"
	 viewBox="0 0 218.3 15.3" style="enable-background:new 0 0 218.3 15.3;" xml:space="preserve">
<style type="text/css">
	.st0{fill:#FFFFFF;}
</style>
<g>
	<path class="st0" d="M1.3,2.2h4.1c3.3,0,5.6,2.3,5.6,5.2v0c0,2.9-2.3,5.2-5.6,5.2H1.3V2.2z M5.3,10.6c1.9,0,3.2-1.3,3.2-3.1v0
		c0-1.9-1.3-3.2-3.2-3.2H3.6v6.3H5.3z"/>
	<path class="st0" d="M21.7,2.2h7.9v2H24v2.1h4.9v2H24v2.2h5.7v2h-8V2.2z"/>
	<path class="st0" d="M40.5,2.2H43l2.8,4.4l2.8-4.4h2.5v10.5h-2.3V5.9l-2.9,4.5h-0.1l-2.9-4.4v6.8h-2.3V2.2z"/>
	<path class="st0" d="M61.7,7.5L61.7,7.5c0-3,2.3-5.4,5.6-5.4c3.2,0,5.5,2.4,5.5,5.4v0c0,3-2.3,5.4-5.6,5.4
		C64.1,12.9,61.7,10.5,61.7,7.5z M70.5,7.5L70.5,7.5c0-1.8-1.3-3.3-3.2-3.3c-1.9,0-3.1,1.5-3.1,3.3v0c0,1.8,1.3,3.3,3.2,3.3
		S70.5,9.3,70.5,7.5z"/>
	<path class="st0" d="M96.9,2.2h4.9c1.2,0,2.1,0.3,2.7,0.9c0.5,0.5,0.7,1.1,0.7,1.8v0c0,1.2-0.6,1.8-1.4,2.3c1.2,0.5,2,1.2,2,2.6v0
		c0,1.9-1.6,2.9-3.9,2.9h-5V2.2z M101.3,6.5c1,0,1.7-0.3,1.7-1.1v0c0-0.7-0.5-1.1-1.5-1.1h-2.3v2.2H101.3z M101.9,10.7
		c1,0,1.6-0.4,1.6-1.1v0c0-0.7-0.5-1.1-1.7-1.1h-2.7v2.3H101.9z"/>
	<path class="st0" d="M116.3,8.2v-6h2.3v5.9c0,1.7,0.9,2.6,2.3,2.6c1.4,0,2.3-0.9,2.3-2.5v-6h2.3v5.9c0,3.2-1.8,4.7-4.6,4.7
		C118,12.9,116.3,11.3,116.3,8.2z"/>
	<path class="st0" d="M136.6,2.2h2.3v10.5h-2.3V2.2z"/>
	<path class="st0" d="M150.3,2.2h2.3v8.4h5.2v2.1h-7.5V2.2z"/>
	<path class="st0" d="M168.3,2.2h4.1c3.3,0,5.6,2.3,5.6,5.2v0c0,2.9-2.3,5.2-5.6,5.2h-4.1V2.2z M172.4,10.6c1.9,0,3.2-1.3,3.2-3.1v0
		c0-1.9-1.3-3.2-3.2-3.2h-1.8v6.3H172.4z"/>
	<path class="st0" d="M188.7,2.2h7.9v2H191v2.1h4.9v2H191v2.2h5.7v2h-8V2.2z"/>
	<path class="st0" d="M207.5,2.2h4.8c1.3,0,2.4,0.4,3.1,1.1c0.6,0.6,0.9,1.4,0.9,2.4v0c0,1.7-0.9,2.8-2.2,3.2l2.6,3.7h-2.7l-2.2-3.3
		h0h-1.8v3.3h-2.3V2.2z M212.1,7.3c1.1,0,1.8-0.6,1.8-1.5v0c0-1-0.7-1.5-1.8-1.5h-2.3v3H212.1z"/>
</g>
</svg>
