<?xml version="1.0" encoding="utf-8"?>
<!-- Generator: Adobe Illustrator 19.2.0, SVG Export Plug-In . SVG Version: 6.00 Build 0)  -->
<svg version="1.1" id="Layer_1" xmlns="http://www.w3.org/2000/svg" xmlns:xlink="http://www.w3.org/1999/xlink" x="0px" y="0px"
	 viewBox="0 0 194.7 15.3" style="enable-background:new 0 0 194.7 15.3;" xml:space="preserve">
<style type="text/css">
	.st0{fill:#FFFFFF;}
</style>
<g>
	<path class="st0" d="M4.8,2.2H7l4.5,10.5H9l-1-2.3H3.7l-1,2.3H0.4L4.8,2.2z M7.3,8.3L5.9,4.9L4.5,8.3H7.3z"/>
	<path class="st0" d="M21.8,2.2h4.1c3.3,0,5.6,2.3,5.6,5.2v0c0,2.9-2.3,5.2-5.6,5.2h-4.1V2.2z M25.9,10.6c1.9,0,3.2-1.3,3.2-3.1v0
		c0-1.9-1.3-3.2-3.2-3.2h-1.8v6.3H25.9z"/>
	<path class="st0" d="M40.7,2.2h2.5L46,9.6l2.7-7.4h2.5L47,12.8h-2L40.7,2.2z"/>
	<path class="st0" d="M61.6,2.2h7.9v2h-5.6v2.1h4.9v2h-4.9v2.2h5.7v2h-8V2.2z"/>
	<path class="st0" d="M80.3,2.2h4.8c1.3,0,2.4,0.4,3.1,1.1c0.6,0.6,0.9,1.4,0.9,2.4v0c0,1.7-0.9,2.8-2.2,3.2l2.6,3.7h-2.7l-2.2-3.3
		h0h-1.8v3.3h-2.3V2.2z M85,7.3c1.1,0,1.8-0.6,1.8-1.5v0c0-1-0.7-1.5-1.8-1.5h-2.3v3H85z"/>
	<path class="st0" d="M102.3,4.4h-3.2V2.2h8.7v2.1h-3.2v8.3h-2.3V4.4z"/>
	<path class="st0" d="M118.4,2.2h2.3v10.5h-2.3V2.2z"/>
	<path class="st0" d="M131.4,11.2l1.4-1.6c0.9,0.8,1.9,1.3,3.1,1.3c0.9,0,1.5-0.4,1.5-1v0c0-0.6-0.4-0.9-2.1-1.3
		c-2.1-0.5-3.5-1.1-3.5-3.2v0c0-1.9,1.5-3.2,3.7-3.2c1.5,0,2.8,0.5,3.9,1.3l-1.2,1.7c-0.9-0.6-1.8-1-2.7-1s-1.3,0.4-1.3,0.9v0
		c0,0.7,0.4,0.9,2.3,1.4c2.1,0.6,3.3,1.3,3.3,3.1v0c0,2.1-1.6,3.2-3.8,3.2C134.2,12.9,132.6,12.3,131.4,11.2z"/>
	<path class="st0" d="M150.5,2.2h2.3v10.5h-2.3V2.2z"/>
	<path class="st0" d="M164.2,2.2h2.1l4.9,6.4V2.2h2.3v10.5h-2l-5.1-6.7v6.7h-2.3V2.2z"/>
	<path class="st0" d="M184.3,7.5L184.3,7.5c0-3,2.3-5.4,5.5-5.4c1.9,0,3,0.5,4.1,1.4l-1.5,1.7c-0.8-0.7-1.5-1.1-2.7-1.1
		c-1.7,0-3,1.5-3,3.3v0c0,1.9,1.3,3.3,3.2,3.3c0.8,0,1.6-0.2,2.2-0.6V8.7h-2.3v-2h4.5v4.5c-1.1,0.9-2.6,1.7-4.5,1.7
		C186.5,12.9,184.3,10.6,184.3,7.5z"/>
</g>
</svg>
