<?xml version="1.0" encoding="utf-8"?>
<!-- Generator: Adobe Illustrator 19.2.0, SVG Export Plug-In . SVG Version: 6.00 Build 0)  -->
<svg version="1.1" id="Layer_1" xmlns="http://www.w3.org/2000/svg" xmlns:xlink="http://www.w3.org/1999/xlink" x="0px" y="0px"
	 viewBox="0 0 100.3 12.7" style="enable-background:new 0 0 100.3 12.7;" xml:space="preserve">
<style type="text/css">
	.st0{fill:#FFFFFF;}
</style>
<g>
	<g>
		<path class="st0" d="M0,10.1l1.3-1.6c0.9,0.7,1.8,1.2,3,1.2c0.9,0,1.4-0.4,1.4-0.9l0,0c0-0.6-0.3-0.8-2-1.3c-2-0.5-3.3-1.1-3.3-3
			l0,0c0-1.8,1.5-3,3.5-3c1.5,0,2.7,0.5,3.7,1.3L6.5,4.3c-0.9-0.6-1.8-1-2.6-1C3,3.3,2.6,3.7,2.6,4.2l0,0c0,0.7,0.4,0.9,2.2,1.3
			C6.8,6,8,6.8,8,8.5l0,0c0,2-1.5,3.1-3.7,3.1C2.7,11.7,1.2,11.2,0,10.1z"/>
		<path class="st0" d="M18.2,1.5h4.1c2.4,0,3.8,1.4,3.8,3.5l0,0c0,2.3-1.8,3.5-4.1,3.5h-1.7v3h-2.2v-10H18.2z M22.2,6.6
			c1.1,0,1.7-0.7,1.7-1.5l0,0c0-1-0.7-1.5-1.8-1.5h-1.7v3.1L22.2,6.6L22.2,6.6z"/>
		<path class="st0" d="M35.8,6.6L35.8,6.6c0-2.9,2.3-5.2,5.3-5.2c3.1,0,5.3,2.3,5.3,5.2l0,0c0,2.9-2.3,5.2-5.3,5.2
			C38,11.8,35.8,9.4,35.8,6.6z M44.1,6.6L44.1,6.6c0-1.7-1.3-3.2-3-3.2c-1.8,0-3,1.4-3,3.1l0,0c0,1.7,1.3,3.2,3,3.2
			C42.9,9.7,44.1,8.3,44.1,6.6z"/>
		<path class="st0" d="M56.8,1.5h4.6c1.3,0,2.3,0.4,2.9,1s0.9,1.3,0.9,2.3l0,0c0,1.6-0.9,2.6-2.1,3.1l2.5,3.6H63l-2.2-3.2l0,0H59
			v3.2h-2.2V1.5z M61.2,6.4c1.1,0,1.7-0.6,1.7-1.4l0,0c0-0.9-0.7-1.4-1.7-1.4H59v2.9L61.2,6.4L61.2,6.4z"/>
		<path class="st0" d="M77.8,3.6h-3.1v-2H83v2h-3.1v8h-2.2L77.8,3.6L77.8,3.6z"/>
		<path class="st0" d="M92.3,10.1l1.3-1.6c0.9,0.7,1.8,1.2,3,1.2c0.9,0,1.4-0.4,1.4-0.9l0,0c0-0.6-0.3-0.8-2-1.3
			c-2-0.5-3.3-1.1-3.3-3.1l0,0c0-1.8,1.5-3,3.5-3c1.5,0,2.7,0.5,3.7,1.3l-1.1,1.7c-0.9-0.6-1.8-1-2.6-1s-1.3,0.4-1.3,0.9l0,0
			c0,0.7,0.4,0.9,2.2,1.3c2,0.5,3.2,1.3,3.2,3l0,0c0,2-1.5,3.1-3.7,3.1C95,11.7,93.5,11.2,92.3,10.1z"/>
	</g>
</g>
</svg>
