<?xml version="1.0" encoding="utf-8"?>
<!-- Generator: Adobe Illustrator 19.2.0, SVG Export Plug-In . SVG Version: 6.00 Build 0)  -->
<svg version="1.1" id="Layer_1" xmlns="http://www.w3.org/2000/svg" xmlns:xlink="http://www.w3.org/1999/xlink" x="0px" y="0px"
	 viewBox="0 0 201.7 35.1" style="enable-background:new 0 0 201.7 35.1;" xml:space="preserve">
<style type="text/css">
	.st0{fill:#FFFFFF;}
</style>
<g>
	<path class="st0" d="M1.3,2.2h4.3c2.5,0,4,1.5,4,3.6v0c0,2.4-1.9,3.7-4.2,3.7H3.6v3.1H1.3V2.2z M5.4,7.5c1.2,0,1.8-0.7,1.8-1.6v0
		c0-1-0.7-1.6-1.9-1.6H3.6v3.2H5.4z"/>
	<path class="st0" d="M19.8,8.2v-6h2.3v5.9c0,1.7,0.9,2.6,2.3,2.6c1.4,0,2.3-0.9,2.3-2.5v-6H29v5.9c0,3.2-1.8,4.7-4.6,4.7
		C21.6,12.9,19.8,11.3,19.8,8.2z"/>
	<path class="st0" d="M40.1,2.2h4.9c1.2,0,2.1,0.3,2.7,0.9c0.5,0.5,0.7,1.1,0.7,1.8v0c0,1.2-0.6,1.8-1.4,2.3c1.2,0.5,2,1.2,2,2.6v0
		c0,1.9-1.6,2.9-3.9,2.9h-5V2.2z M44.4,6.5c1,0,1.7-0.3,1.7-1.1v0c0-0.7-0.5-1.1-1.5-1.1h-2.3v2.2H44.4z M45,10.7
		c1,0,1.6-0.4,1.6-1.1v0c0-0.7-0.5-1.1-1.7-1.1h-2.7v2.3H45z"/>
	<path class="st0" d="M59.6,2.2h2.3v8.4h5.2v2.1h-7.5V2.2z"/>
	<path class="st0" d="M77.7,2.2H80v10.5h-2.3V2.2z"/>
	<path class="st0" d="M90.7,11.2L92,9.6c0.9,0.8,1.9,1.3,3.1,1.3c0.9,0,1.5-0.4,1.5-1v0c0-0.6-0.4-0.9-2.1-1.3
		c-2.1-0.5-3.5-1.1-3.5-3.2v0c0-1.9,1.5-3.2,3.7-3.2c1.5,0,2.8,0.5,3.9,1.3l-1.2,1.7c-0.9-0.6-1.8-1-2.7-1c-0.9,0-1.3,0.4-1.3,0.9v0
		c0,0.7,0.4,0.9,2.3,1.4c2.1,0.6,3.3,1.3,3.3,3.1v0c0,2.1-1.6,3.2-3.8,3.2C93.5,12.9,91.9,12.3,90.7,11.2z"/>
	<path class="st0" d="M109.7,2.2h2.3v4.1h4.2V2.2h2.3v10.5h-2.3V8.5H112v4.2h-2.3V2.2z"/>
	<path class="st0" d="M129.8,2.2h7.9v2h-5.6v2.1h4.9v2h-4.9v2.2h5.7v2h-8V2.2z"/>
	<path class="st0" d="M148.6,2.2h4.8c1.3,0,2.4,0.4,3.1,1.1c0.6,0.6,0.9,1.4,0.9,2.4v0c0,1.7-0.9,2.8-2.2,3.2l2.6,3.7h-2.7l-2.2-3.3
		h0h-1.8v3.3h-2.3V2.2z M153.2,7.3c1.1,0,1.8-0.6,1.8-1.5v0c0-1-0.7-1.5-1.8-1.5h-2.3v3H153.2z"/>
	<path class="st0" d="M4.8,21.9H7l4.5,10.5H9l-1-2.3H3.7l-1,2.3H0.4L4.8,21.9z M7.3,28.1l-1.4-3.4l-1.4,3.4H7.3z"/>
	<path class="st0" d="M21.8,22h4.1c3.3,0,5.6,2.3,5.6,5.2v0c0,2.9-2.3,5.2-5.6,5.2h-4.1V22z M25.9,30.4c1.9,0,3.2-1.3,3.2-3.1v0
		c0-1.9-1.3-3.2-3.2-3.2h-1.8v6.3H25.9z"/>
	<path class="st0" d="M55.5,22h4.3c2.5,0,4,1.5,4,3.6v0c0,2.4-1.9,3.7-4.2,3.7h-1.8v3.1h-2.3V22z M59.6,27.3c1.2,0,1.8-0.7,1.8-1.6
		v0c0-1-0.7-1.6-1.9-1.6h-1.8v3.2H59.6z"/>
	<path class="st0" d="M74.2,22h2.3v8.4h5.2v2.1h-7.5V22z"/>
	<path class="st0" d="M95.8,21.9H98l4.5,10.5H100l-1-2.3h-4.4l-1,2.3h-2.3L95.8,21.9z M98.3,28.1l-1.4-3.4l-1.4,3.4H98.3z"/>
	<path class="st0" d="M113.9,24.1h-3.2V22h8.7v2.1h-3.2v8.3h-2.3V24.1z"/>
	<path class="st0" d="M129.9,22h8v2.1h-5.7v2.2h5v2.1h-5v4.1h-2.3V22z"/>
	<path class="st0" d="M148,27.3L148,27.3c0-3,2.3-5.4,5.6-5.4c3.2,0,5.5,2.4,5.5,5.4v0c0,3-2.3,5.4-5.6,5.4
		C150.3,32.7,148,30.3,148,27.3z M156.7,27.3L156.7,27.3c0-1.8-1.3-3.3-3.2-3.3c-1.9,0-3.1,1.5-3.1,3.3v0c0,1.8,1.3,3.3,3.2,3.3
		S156.7,29.1,156.7,27.3z"/>
	<path class="st0" d="M169.9,22h4.8c1.3,0,2.4,0.4,3.1,1.1c0.6,0.6,0.9,1.4,0.9,2.4v0c0,1.7-0.9,2.8-2.2,3.2l2.6,3.7h-2.7l-2.2-3.3
		h0h-1.8v3.3h-2.3V22z M174.6,27.1c1.1,0,1.8-0.6,1.8-1.5v0c0-1-0.7-1.5-1.8-1.5h-2.3v3H174.6z"/>
	<path class="st0" d="M189.5,22h2.5l2.8,4.4l2.8-4.4h2.5v10.5h-2.3v-6.8l-2.9,4.5h-0.1l-2.9-4.4v6.8h-2.3V22z"/>
</g>
</svg>
