<?xml version="1.0" encoding="utf-8"?>
<!-- Generator: Adobe Illustrator 19.2.0, SVG Export Plug-In . SVG Version: 6.00 Build 0)  -->
<svg version="1.1" id="Layer_1" xmlns="http://www.w3.org/2000/svg" xmlns:xlink="http://www.w3.org/1999/xlink" x="0px" y="0px"
	 viewBox="0 0 159.8 35.1" style="enable-background:new 0 0 159.8 35.1;" xml:space="preserve">
<style type="text/css">
	.st0{fill:#FFFFFF;}
</style>
<g>
	<path class="st0" d="M1.3,2.5h4.3c2.5,0,4,1.5,4,3.6v0c0,2.4-1.9,3.7-4.2,3.7H3.6V13H1.3V2.5z M5.4,7.8c1.2,0,1.8-0.7,1.8-1.6v0
		c0-1-0.7-1.6-1.9-1.6H3.6v3.2H5.4z"/>
	<path class="st0" d="M19.8,8.5v-6h2.3v5.9c0,1.7,0.9,2.6,2.3,2.6c1.4,0,2.3-0.9,2.3-2.5v-6H29v5.9c0,3.2-1.8,4.7-4.6,4.7
		C21.6,13.1,19.8,11.5,19.8,8.5z"/>
	<path class="st0" d="M40.1,2.5h4.9c1.2,0,2.1,0.3,2.7,0.9c0.5,0.5,0.7,1.1,0.7,1.8v0c0,1.2-0.6,1.8-1.4,2.3c1.2,0.5,2,1.2,2,2.6v0
		c0,1.9-1.6,2.9-3.9,2.9h-5V2.5z M44.4,6.7c1,0,1.7-0.3,1.7-1.1v0c0-0.7-0.5-1.1-1.5-1.1h-2.3v2.2H44.4z M45,10.9
		c1,0,1.6-0.4,1.6-1.1v0c0-0.7-0.5-1.1-1.7-1.1h-2.7v2.3H45z"/>
	<path class="st0" d="M59.6,2.5h2.3v8.4h5.2V13h-7.5V2.5z"/>
	<path class="st0" d="M77.7,2.5H80V13h-2.3V2.5z"/>
	<path class="st0" d="M90.7,11.4L92,9.8c0.9,0.8,1.9,1.3,3.1,1.3c0.9,0,1.5-0.4,1.5-1v0c0-0.6-0.4-0.9-2.1-1.3
		c-2.1-0.5-3.5-1.1-3.5-3.2v0c0-1.9,1.5-3.2,3.7-3.2c1.5,0,2.8,0.5,3.9,1.3l-1.2,1.7c-0.9-0.6-1.8-1-2.7-1c-0.9,0-1.3,0.4-1.3,0.9v0
		c0,0.7,0.4,0.9,2.3,1.4c2.1,0.6,3.3,1.3,3.3,3.1v0c0,2.1-1.6,3.2-3.8,3.2C93.5,13.1,91.9,12.5,90.7,11.4z"/>
	<path class="st0" d="M109.7,2.5h2.3v4.1h4.2V2.5h2.3V13h-2.3V8.7H112V13h-2.3V2.5z"/>
	<path class="st0" d="M129.8,2.5h7.9v2h-5.6v2.1h4.9v2h-4.9v2.2h5.7v2h-8V2.5z"/>
	<path class="st0" d="M148.6,2.5h4.8c1.3,0,2.4,0.4,3.1,1.1c0.6,0.6,0.9,1.4,0.9,2.4v0c0,1.7-0.9,2.8-2.2,3.2l2.6,3.7h-2.7l-2.2-3.3
		h0h-1.8V13h-2.3V2.5z M153.2,7.6c1.1,0,1.8-0.6,1.8-1.5v0c0-1-0.7-1.5-1.8-1.5h-2.3v3H153.2z"/>
	<path class="st0" d="M0.8,27.5L0.8,27.5c0-3,2.2-5.4,5.5-5.4c2,0,3.2,0.7,4.1,1.6l-1.5,1.7c-0.8-0.7-1.6-1.2-2.7-1.2
		c-1.8,0-3,1.5-3,3.3v0c0,1.8,1.2,3.3,3,3.3c1.2,0,1.9-0.5,2.8-1.2l1.5,1.5c-1.1,1.2-2.3,1.9-4.3,1.9C3.1,32.9,0.8,30.5,0.8,27.5z"
		/>
	<path class="st0" d="M21,22.3h7.9v2h-5.6v2.1h4.9v2h-4.9v2.2H29v2h-8V22.3z"/>
	<path class="st0" d="M39.8,22.3h2.1l4.9,6.4v-6.4h2.3v10.5h-2l-5.1-6.7v6.7h-2.3V22.3z"/>
	<path class="st0" d="M62.8,24.4h-3.2v-2.1h8.7v2.1h-3.2v8.3h-2.3V24.4z"/>
	<path class="st0" d="M78.8,22.3h7.9v2h-5.6v2.1H86v2h-4.9v2.2h5.7v2h-8V22.3z"/>
	<path class="st0" d="M97.6,22.3h4.8c1.3,0,2.4,0.4,3.1,1.1c0.6,0.6,0.9,1.4,0.9,2.4v0c0,1.7-0.9,2.8-2.2,3.2l2.6,3.7h-2.7l-2.2-3.3
		h0h-1.8v3.3h-2.3V22.3z M102.2,27.3c1.1,0,1.8-0.6,1.8-1.5v0c0-1-0.7-1.5-1.8-1.5h-2.3v3H102.2z"/>
</g>
</svg>
