<?xml version="1.0" encoding="utf-8"?>
<!-- Generator: Adobe Illustrator 19.2.0, SVG Export Plug-In . SVG Version: 6.00 Build 0)  -->
<svg version="1.1" id="Layer_1" xmlns="http://www.w3.org/2000/svg" xmlns:xlink="http://www.w3.org/1999/xlink" x="0px" y="0px"
	 viewBox="0 0 170.7 15.3" style="enable-background:new 0 0 170.7 15.3;" xml:space="preserve">
<style type="text/css">
	.st0{fill:#FFFFFF;}
</style>
<g>
	<path class="st0" d="M1.3,2.2h4.1c3.3,0,5.6,2.3,5.6,5.2v0c0,2.9-2.3,5.2-5.6,5.2H1.3V2.2z M5.3,10.6c1.9,0,3.2-1.3,3.2-3.1v0
		c0-1.9-1.3-3.2-3.2-3.2H3.6v6.3H5.3z"/>
	<path class="st0" d="M24.5,2.2h2.1l4.5,10.5h-2.4l-1-2.3h-4.4l-1,2.3h-2.3L24.5,2.2z M27,8.3l-1.4-3.4l-1.4,3.4H27z"/>
	<path class="st0" d="M40.6,11.2L42,9.6c0.9,0.8,1.9,1.3,3.1,1.3c0.9,0,1.5-0.4,1.5-1v0c0-0.6-0.4-0.9-2.1-1.3
		c-2.1-0.5-3.5-1.1-3.5-3.2v0c0-1.9,1.5-3.2,3.7-3.2c1.5,0,2.8,0.5,3.9,1.3l-1.2,1.7c-0.9-0.6-1.8-1-2.7-1S43.4,4.5,43.4,5v0
		c0,0.7,0.4,0.9,2.3,1.4c2.1,0.6,3.3,1.3,3.3,3.1v0c0,2.1-1.6,3.2-3.8,3.2C43.5,12.9,41.9,12.3,40.6,11.2z"/>
	<path class="st0" d="M59.7,2.2H62v4.1h4.2V2.2h2.3v10.5h-2.3V8.5H62v4.2h-2.3V2.2z"/>
	<path class="st0" d="M79.8,2.2h4.9c1.2,0,2.1,0.3,2.7,0.9c0.5,0.5,0.7,1.1,0.7,1.8v0c0,1.2-0.6,1.8-1.4,2.3c1.2,0.5,2,1.2,2,2.6v0
		c0,1.9-1.6,2.9-3.9,2.9h-5V2.2z M84.2,6.5c1,0,1.7-0.3,1.7-1.1v0c0-0.7-0.5-1.1-1.5-1.1H82v2.2H84.2z M84.8,10.7
		c1,0,1.6-0.4,1.6-1.1v0c0-0.7-0.5-1.1-1.7-1.1H82v2.3H84.8z"/>
	<path class="st0" d="M98.9,7.5L98.9,7.5c0-3,2.3-5.4,5.6-5.4c3.2,0,5.5,2.4,5.5,5.4v0c0,3-2.3,5.4-5.6,5.4
		C101.2,12.9,98.9,10.5,98.9,7.5z M107.6,7.5L107.6,7.5c0-1.8-1.3-3.3-3.2-3.3c-1.9,0-3.1,1.5-3.1,3.3v0c0,1.8,1.3,3.3,3.2,3.3
		S107.6,9.3,107.6,7.5z"/>
	<path class="st0" d="M123.7,2.2h2.1l4.5,10.5h-2.4l-1-2.3h-4.4l-1,2.3h-2.3L123.7,2.2z M126.1,8.3l-1.4-3.4l-1.4,3.4H126.1z"/>
	<path class="st0" d="M140.7,2.2h4.8c1.3,0,2.4,0.4,3.1,1.1c0.6,0.6,0.9,1.4,0.9,2.4v0c0,1.7-0.9,2.8-2.2,3.2l2.6,3.7h-2.7l-2.2-3.3
		h0H143v3.3h-2.3V2.2z M145.3,7.3c1.1,0,1.8-0.6,1.8-1.5v0c0-1-0.7-1.5-1.8-1.5H143v3H145.3z"/>
	<path class="st0" d="M160.3,2.2h4.1c3.3,0,5.6,2.3,5.6,5.2v0c0,2.9-2.3,5.2-5.6,5.2h-4.1V2.2z M164.3,10.6c1.9,0,3.2-1.3,3.2-3.1v0
		c0-1.9-1.3-3.2-3.2-3.2h-1.8v6.3H164.3z"/>
</g>
</svg>
