<?xml version="1.0" encoding="utf-8"?>
<!-- Generator: Adobe Illustrator 19.2.0, SVG Export Plug-In . SVG Version: 6.00 Build 0)  -->
<svg version="1.1" id="Layer_1" xmlns="http://www.w3.org/2000/svg" xmlns:xlink="http://www.w3.org/1999/xlink" x="0px" y="0px"
	 viewBox="0 0 230.5 15.3" style="enable-background:new 0 0 230.5 15.3;" xml:space="preserve">
<style type="text/css">
	.st0{fill:#FFFFFF;}
</style>
<g>
	<path class="st0" d="M1.3,2.2h4.1c3.3,0,5.6,2.3,5.6,5.2v0c0,2.9-2.3,5.2-5.6,5.2H1.3V2.2z M5.3,10.6c1.9,0,3.2-1.3,3.2-3.1v0
		c0-1.9-1.3-3.2-3.2-3.2H3.6v6.3H5.3z"/>
	<path class="st0" d="M21.7,2.2h7.9v2H24v2.1h4.9v2H24v2.2h5.7v2h-8V2.2z"/>
	<path class="st0" d="M39.8,11.2l1.4-1.6c0.9,0.8,1.9,1.3,3.1,1.3c0.9,0,1.5-0.4,1.5-1v0c0-0.6-0.4-0.9-2.1-1.3
		c-2.1-0.5-3.5-1.1-3.5-3.2v0c0-1.9,1.5-3.2,3.7-3.2c1.5,0,2.8,0.5,3.9,1.3l-1.2,1.7c-0.9-0.6-1.8-1-2.7-1c-0.9,0-1.3,0.4-1.3,0.9v0
		c0,0.7,0.4,0.9,2.3,1.4C46.8,7,48,7.8,48,9.6v0c0,2.1-1.6,3.2-3.8,3.2C42.6,12.9,41,12.3,39.8,11.2z"/>
	<path class="st0" d="M58.9,2.2h2.3v10.5h-2.3V2.2z"/>
	<path class="st0" d="M72.1,7.5L72.1,7.5c0-3,2.3-5.4,5.5-5.4c1.9,0,3,0.5,4.1,1.4l-1.5,1.7c-0.8-0.7-1.5-1.1-2.7-1.1
		c-1.7,0-3,1.5-3,3.3v0c0,1.9,1.3,3.3,3.2,3.3c0.8,0,1.6-0.2,2.2-0.6V8.7h-2.3v-2h4.5v4.5c-1.1,0.9-2.6,1.7-4.5,1.7
		C74.3,12.9,72.1,10.6,72.1,7.5z"/>
	<path class="st0" d="M93,2.2h2.1l4.9,6.4V2.2h2.3v10.5h-2l-5.1-6.7v6.7H93V2.2z"/>
	<path class="st0" d="M126.1,11.2l1.4-1.6c0.9,0.8,1.9,1.3,3.1,1.3c0.9,0,1.5-0.4,1.5-1v0c0-0.6-0.4-0.9-2.1-1.3
		c-2.1-0.5-3.5-1.1-3.5-3.2v0c0-1.9,1.5-3.2,3.7-3.2c1.5,0,2.8,0.5,3.9,1.3l-1.2,1.7c-0.9-0.6-1.8-1-2.7-1s-1.3,0.4-1.3,0.9v0
		c0,0.7,0.4,0.9,2.3,1.4c2.1,0.6,3.3,1.3,3.3,3.1v0c0,2.1-1.6,3.2-3.8,3.2C129,12.9,127.4,12.3,126.1,11.2z"/>
	<path class="st0" d="M147.7,8.6l-4-6.3h2.7l2.5,4.2l2.5-4.2h2.6l-4,6.3v4.2h-2.3V8.6z"/>
	<path class="st0" d="M162.9,11.2l1.4-1.6c0.9,0.8,1.9,1.3,3.1,1.3c0.9,0,1.5-0.4,1.5-1v0c0-0.6-0.4-0.9-2.1-1.3
		c-2.1-0.5-3.5-1.1-3.5-3.2v0c0-1.9,1.5-3.2,3.7-3.2c1.5,0,2.8,0.5,3.9,1.3l-1.2,1.7c-0.9-0.6-1.8-1-2.7-1s-1.3,0.4-1.3,0.9v0
		c0,0.7,0.4,0.9,2.3,1.4c2.1,0.6,3.3,1.3,3.3,3.1v0c0,2.1-1.6,3.2-3.8,3.2C165.8,12.9,164.2,12.3,162.9,11.2z"/>
	<path class="st0" d="M184.2,4.4H181V2.2h8.7v2.1h-3.2v8.3h-2.3V4.4z"/>
	<path class="st0" d="M200.2,2.2h7.9v2h-5.6v2.1h4.9v2h-4.9v2.2h5.7v2h-8V2.2z"/>
	<path class="st0" d="M219,2.2h2.5l2.8,4.4l2.8-4.4h2.5v10.5h-2.3V5.9l-2.9,4.5h-0.1l-2.9-4.4v6.8H219V2.2z"/>
</g>
</svg>
