<?xml version="1.0" encoding="utf-8"?>
<!-- Generator: Adobe Illustrator 19.2.0, SVG Export Plug-In . SVG Version: 6.00 Build 0)  -->
<svg version="1.1" id="Layer_1" xmlns="http://www.w3.org/2000/svg" xmlns:xlink="http://www.w3.org/1999/xlink" x="0px" y="0px"
	 viewBox="0 0 176 12.7" style="enable-background:new 0 0 176 12.7;" xml:space="preserve">
<style type="text/css">
	.st0{fill:#FFFFFF;}
</style>
<g>
	<path class="st0" d="M4.5,1.3h2.1l4.5,10.5H8.7l-1-2.3H3.3l-1,2.3H0L4.5,1.3z M6.9,7.4L5.5,4L4.1,7.4H6.9z"/>
	<path class="st0" d="M21.5,1.3h4.1c3.3,0,5.6,2.3,5.6,5.2v0c0,2.9-2.3,5.2-5.6,5.2h-4.1V1.3z M25.5,9.7c1.9,0,3.2-1.3,3.2-3.1v0
		c0-1.9-1.3-3.2-3.2-3.2h-1.8v6.3H25.5z"/>
	<path class="st0" d="M55.1,1.3H60c1.2,0,2.1,0.3,2.7,0.9c0.5,0.5,0.7,1.1,0.7,1.8v0c0,1.2-0.6,1.8-1.4,2.3c1.2,0.5,2,1.2,2,2.6v0
		c0,1.9-1.6,2.9-3.9,2.9h-5V1.3z M59.5,5.6c1,0,1.7-0.3,1.7-1.1v0c0-0.7-0.5-1.1-1.5-1.1h-2.3v2.2H59.5z M60.1,9.8
		c1,0,1.6-0.4,1.6-1.1v0c0-0.7-0.5-1.1-1.7-1.1h-2.7v2.3H60.1z"/>
	<path class="st0" d="M74.5,7.3v-6h2.3v5.9c0,1.7,0.9,2.6,2.3,2.6s2.3-0.9,2.3-2.5v-6h2.3v5.9c0,3.2-1.8,4.7-4.6,4.7
		C76.2,12,74.5,10.4,74.5,7.3z"/>
	<path class="st0" d="M94.8,1.3h2.3v10.5h-2.3V1.3z"/>
	<path class="st0" d="M108.5,1.3h2.3v8.4h5.2v2.1h-7.5V1.3z"/>
	<path class="st0" d="M126.5,1.3h4.1c3.3,0,5.6,2.3,5.6,5.2v0c0,2.9-2.3,5.2-5.6,5.2h-4.1V1.3z M130.6,9.7c1.9,0,3.2-1.3,3.2-3.1v0
		c0-1.9-1.3-3.2-3.2-3.2h-1.8v6.3H130.6z"/>
	<path class="st0" d="M147,1.3h7.9v2h-5.6v2.1h4.9v2h-4.9v2.2h5.7v2h-8V1.3z"/>
	<path class="st0" d="M165.7,1.3h4.8c1.3,0,2.4,0.4,3.1,1.1c0.6,0.6,0.9,1.4,0.9,2.4v0c0,1.7-0.9,2.8-2.2,3.2l2.6,3.7h-2.7l-2.2-3.3
		h0H168v3.3h-2.3V1.3z M170.4,6.4c1.1,0,1.8-0.6,1.8-1.5v0c0-1-0.7-1.5-1.8-1.5H168v3H170.4z"/>
</g>
</svg>
