<?xml version="1.0" standalone="no"?>
<!DOCTYPE svg PUBLIC "-//W3C//DTD SVG 1.1//EN" "http://www.w3.org/Graphics/SVG/1.1/DTD/svg11.dtd" >
<svg xmlns="http://www.w3.org/2000/svg" xmlns:xlink="http://www.w3.org/1999/xlink" version="1.1">
<metadata>
Created by FontForge 20161116 at Wed May 25 19:38:26 2016
 By Jimmy Wärting
Copyright (c) 2012-2014 Durotype, www.durotype.com. All rights reserved.
</metadata>
<defs>
<font id="Aspira-Bold" horiz-adv-x="1619" >
  <font-face 
    font-family="Aspira"
    font-weight="700"
    font-stretch="normal"
    units-per-em="2048"
    panose-1="0 0 0 0 0 0 0 0 0 0"
    ascent="1592"
    descent="-456"
    x-height="1002"
    cap-height="1424"
    bbox="-87 -442 2079 1961"
    underline-thickness="102"
    underline-position="-242"
    unicode-range="U+0020-FB04"
  />
<missing-glyph horiz-adv-x="748" 
d="M68 0v1365h544v-1365h-544zM136 68h408v1229h-408v-1229z" />
    <glyph glyph-name="uniFB03" unicode="ffi" horiz-adv-x="1984" 
d="M40 774v228h174v127q0 176 94.5 268.5t271.5 92.5q88 0 211 -29l-32 -215q-79 15 -123 15q-86 0 -118.5 -44.5t-32.5 -139.5v-75h193v-228h-193v-774h-271v774h-174zM749 774v228h173v127q0 176 95 268.5t272 92.5q80 0 183 -23l-32 -216q-50 10 -96 10q-86 0 -118 -44
t-32 -140v-75h246v-228h-246v-774h-272v774h-173zM1561 1314q0 67 48 115t116 48q67 0 115 -47.5t48 -115.5t-48 -115.5t-115 -47.5q-68 0 -116 48t-48 115zM1588 0v1002h272v-1002h-272z" />
    <glyph glyph-name="uniFB04" unicode="ffl" horiz-adv-x="2000" 
d="M40 774v228h174v127q0 176 94.5 268.5t271.5 92.5q88 0 211 -29l-32 -215q-79 15 -123 15q-86 0 -118.5 -44.5t-32.5 -139.5v-75h193v-228h-193v-774h-271v774h-174zM749 774v228h173v127q0 176 95 268.5t272 92.5q79 0 183 -23l-32 -216q-50 10 -96 10q-86 0 -118 -44
t-32 -140v-75h246v-228h-246v-774h-272v774h-173zM1583 236v1206l270 48v-1145q0 -64 15.5 -96.5t60.5 -55.5l-35 -213q-129 0 -220 67t-91 189z" />
    <glyph glyph-name=".notdef" horiz-adv-x="748" 
d="M68 0v1365h544v-1365h-544zM136 68h408v1229h-408v-1229z" />
    <glyph glyph-name="glyph1" horiz-adv-x="0" 
 />
    <glyph glyph-name="glyph2" horiz-adv-x="682" 
 />
    <glyph glyph-name="space" unicode=" " horiz-adv-x="491" 
 />
    <glyph glyph-name="exclam" unicode="!" horiz-adv-x="607" 
d="M136 147q0 70 49 119.5t119 49.5t119 -49.5t49 -119.5t-49 -118.5t-119 -48.5t-119 48.5t-49 118.5zM158 1424h292l-29 -971h-234z" />
    <glyph glyph-name="quotedbl" unicode="&#x22;" horiz-adv-x="844" 
d="M88 1354q0 59 42 97.5t100 38.5q57 0 99 -37t42 -100q0 -39 -70 -422q-9 -48 -14 -75h-115q-80 445 -83 483q-1 8 -1 15zM473 1354q0 59 41.5 97.5t99.5 38.5q57 0 99 -37t42 -100q0 -44 -83 -497h-115q-80 445 -83 483q-1 8 -1 15z" />
    <glyph glyph-name="numbersign" unicode="#" horiz-adv-x="1188" 
d="M71 406v184h221l37 246h-205v184h231l60 404h187l-60 -404h209l59 404h187l-59 -404h178v-184h-205l-36 -246h184v-184h-211l-60 -406h-186l59 406h-209l-59 -406h-187l59 406h-194zM479 590h209l36 246h-208z" />
    <glyph glyph-name="dollar" unicode="$" horiz-adv-x="1160" 
d="M65 171l123 193q187 -137 385 -137q112 0 172 43.5t60 116.5q0 45 -24 78t-64.5 53.5t-93 37t-110.5 32t-116 34t-110.5 47.5t-93 68.5t-64.5 101.5t-24 141q0 172 104 280t274 134v194h196v-191q220 -27 385 -158l-120 -188q-79 53 -169.5 81t-172.5 28q-101 0 -162 -43
t-61 -118q0 -45 24 -77t65 -52t94 -35.5t111.5 -30t117 -32.5t111.5 -47.5t94 -69t65 -103t24 -145.5q0 -186 -115 -293.5t-301 -128.5v-191h-200v194q-221 32 -404 183z" />
    <glyph glyph-name="percent" unicode="%" horiz-adv-x="1740" 
d="M66 1009q0 203 86 314.5t239 111.5t238 -111t85 -314t-85 -312.5t-239 -109.5q-153 0 -238.5 109.5t-85.5 311.5zM264 1012q0 -124 32.5 -190t94.5 -66q61 0 93.5 66t32.5 190q0 123 -32.5 188t-93.5 65q-62 0 -94.5 -65t-32.5 -188zM347 -41l849 1506h198l-850 -1506
h-197zM1027 411q0 203 85.5 314t238.5 111t238 -111t85 -313q0 -203 -84.5 -312.5t-238.5 -109.5t-239 109.5t-85 311.5zM1225 414q0 -125 32.5 -190.5t93.5 -65.5q60 0 93 66t33 190q0 123 -32.5 188t-93.5 65t-93.5 -65t-32.5 -188z" />
    <glyph glyph-name="ampersand" unicode="&#x26;" horiz-adv-x="1357" 
d="M115 401q0 128 64 220.5t175 173.5q-125 160 -125 313q0 138 102.5 237.5t251.5 99.5t245.5 -100.5t96.5 -246.5q0 -109 -55 -187.5t-154 -150.5l243 -270q86 117 129 233l218 -86q-56 -162 -186 -325l281 -312h-345l-117 131q-195 -151 -393 -151q-185 0 -308 121.5
t-123 299.5zM370 398q0 -80 52.5 -129.5t136.5 -49.5q108 0 224 88l-275 312q-66 -51 -102 -103.5t-36 -117.5zM463 1116q0 -43 25 -85.5t71 -96.5q65 46 99 89t34 93t-31 83t-80 33t-83.5 -33t-34.5 -83z" />
    <glyph glyph-name="quotesingle" unicode="'" horiz-adv-x="459" 
d="M88 1354q0 59 42 97.5t100 38.5q57 0 99 -37t42 -100q0 -39 -70 -422q-9 -48 -14 -75h-115q-80 445 -83 483q-1 8 -1 15z" />
    <glyph glyph-name="parenleft" unicode="(" horiz-adv-x="627" 
d="M77 569q0 629 348 919l155 -128q-69 -66 -117.5 -163.5t-72 -208.5t-33.5 -211.5t-10 -207.5t10 -207.5t33.5 -211t72 -208t117.5 -163.5l-155 -128q-348 290 -348 918z" />
    <glyph glyph-name="parenright" unicode=")" horiz-adv-x="627" 
d="M47 -221q69 66 117.5 163.5t72 208t33.5 211t10 207.5t-10 207.5t-33.5 211.5t-72 208.5t-117.5 163.5l155 128q348 -290 348 -919q0 -628 -348 -918z" />
    <glyph glyph-name="asterisk" unicode="*" horiz-adv-x="948" 
d="M78 994v164h253l-128 219l147 83l124 -218l126 218l145 -83l-127 -219h253v-164h-255l127 -221l-143 -80l-126 216l-124 -216l-146 82l127 219h-253z" />
    <glyph glyph-name="plus" unicode="+" horiz-adv-x="1145" 
d="M68 488v222h391v394h226v-394h393v-222h-393v-395h-226v395h-391z" />
    <glyph glyph-name="comma" unicode="," horiz-adv-x="525" 
d="M30 -243q37 20 54.5 30.5t46 33t41.5 48.5t13 57q0 30 -14.5 58.5t-32 48t-32 51t-14.5 65.5q0 67 46 117t119 50q83 0 128 -64.5t45 -158.5q0 -145 -102 -278.5t-249 -177.5z" />
    <glyph glyph-name="hyphen" unicode="-" horiz-adv-x="774" 
d="M116 436v210h543v-210h-543z" />
    <glyph glyph-name="period" unicode="." horiz-adv-x="517" 
d="M91 147q0 70 49 119.5t119 49.5t119 -49.5t49 -119.5t-49 -118.5t-119 -48.5t-119 48.5t-49 118.5z" />
    <glyph glyph-name="slash" unicode="/" horiz-adv-x="913" 
d="M56 -164l578 1638h227l-578 -1638h-227z" />
    <glyph glyph-name="zero" unicode="0" horiz-adv-x="1248" 
d="M91 687q0 341 141 528t393 187t392 -186.5t140 -526.5t-139.5 -524.5t-393.5 -184.5q-253 0 -393 184t-140 523zM371 693q0 -228 65.5 -348.5t188.5 -120.5q122 0 187 120.5t65 347.5q0 225 -65 344.5t-188 119.5t-188 -119t-65 -344z" />
    <glyph glyph-name="one" unicode="1" horiz-adv-x="1001" 
d="M112 0v243h293v739h-286v210q81 0 155 20t131.5 66t70.5 111h203v-1146h269v-243h-836z" />
    <glyph glyph-name="two" unicode="2" horiz-adv-x="1115" 
d="M70 1167q70 107 193 171t273 64q202 0 335.5 -115.5t133.5 -311.5q0 -82 -26 -155t-69 -128t-96 -104t-110.5 -92t-108.5 -82t-93.5 -83.5t-62.5 -87.5h585v-243h-942v188q33 80 88 153t114 127t124 104.5t122 95t103.5 89.5t73.5 98t27 110q0 88 -58.5 141t-156.5 53
q-83 0 -160.5 -39.5t-128.5 -102.5z" />
    <glyph glyph-name="three" unicode="3" horiz-adv-x="1110" 
d="M47 188l152 164q62 -60 142 -95.5t161 -35.5q103 0 176 54.5t73 146.5q0 75 -50 123t-130 66q-67 14 -224 16v206q149 0 224 22q126 38 126 147q0 75 -55.5 116t-149.5 41q-136 0 -264 -100l-131 174q73 75 183.5 122t241.5 47q196 0 326 -104t130 -276q0 -200 -187 -284
q103 -36 169 -122.5t66 -212.5q0 -100 -44 -182.5t-117 -134t-162.5 -79t-185.5 -27.5q-133 0 -256 53t-214 155z" />
    <glyph glyph-name="four" unicode="4" horiz-adv-x="1190" 
d="M36 286v178l673 925h219v-884h200v-219h-203v-286h-260v286h-629zM313 505h352v472z" />
    <glyph glyph-name="five" unicode="5" horiz-adv-x="1122" 
d="M56 186l142 170q134 -136 305 -136q119 0 191.5 69t72.5 172t-73.5 164.5t-185.5 61.5q-117 0 -238 -78l-148 115l111 658h746v-234h-527l-50 -281q88 42 189 42q82 0 159.5 -27t144 -79t107 -140t40.5 -198q0 -146 -70.5 -258t-187.5 -169.5t-261 -57.5t-265 57
t-202 149z" />
    <glyph glyph-name="six" unicode="6" horiz-adv-x="1144" 
d="M88 592q0 168 45 314.5t129 257t212.5 174.5t286.5 64q95 0 169 -26l-34 -223q-54 9 -111 9q-163 0 -278.5 -103.5t-141.5 -268.5l1 -1q52 55 126.5 84.5t156.5 29.5q115 0 212 -54t157.5 -159t60.5 -240q0 -208 -136.5 -339t-359.5 -131q-128 0 -225 47t-155 131
t-86.5 193t-28.5 241zM355 444q0 -99 65.5 -164t168.5 -65q102 0 167.5 64.5t65.5 167.5q0 101 -64.5 162t-165.5 61q-104 0 -170.5 -63t-66.5 -163z" />
    <glyph glyph-name="seven" unicode="7" horiz-adv-x="1045" 
d="M53 1142v240h966v-203q-210 -283 -343 -567.5t-198 -611.5h-289q58 318 176.5 595t312.5 547h-625z" />
    <glyph glyph-name="eight" unicode="8" horiz-adv-x="1154" 
d="M82 420q0 120 58.5 208t143.5 136q-130 95 -130 261q0 159 119.5 268t304.5 109q184 0 303.5 -109t119.5 -269q0 -89 -37.5 -155.5t-92.5 -104.5q85 -47 143.5 -134.5t58.5 -207.5q0 -187 -142 -314.5t-354 -127.5q-213 0 -354 127.5t-141 312.5zM343 422
q0 -95 68.5 -153t167.5 -58q100 0 165 60t65 152q0 91 -64.5 153t-167.5 62q-104 0 -169 -62t-65 -154zM410 1011q0 -70 47 -114t119 -44q74 0 122.5 46.5t48.5 113.5t-48.5 111.5t-121.5 44.5t-120 -44.5t-47 -113.5z" />
    <glyph glyph-name="nine" unicode="9" horiz-adv-x="1144" 
d="M65 932q0 208 137 339t359 131q128 0 225 -47t155 -131t86.5 -193t28.5 -241q0 -168 -45 -314.5t-129 -257t-212.5 -174.5t-286.5 -64q-95 0 -169 26l34 223q54 -9 111 -9q163 0 278.5 103.5t141.5 268.5l-1 1q-52 -55 -126.5 -84.5t-156.5 -29.5q-115 0 -212 54
t-157.5 159t-60.5 240zM322 935q0 -102 64 -162.5t166 -60.5q104 0 170.5 63t66.5 163q0 99 -65.5 164t-168.5 65q-102 0 -167.5 -64.5t-65.5 -167.5z" />
    <glyph glyph-name="colon" unicode=":" horiz-adv-x="555" 
d="M110 147q0 70 49 119.5t119 49.5t118.5 -49.5t48.5 -119.5t-48.5 -118.5t-118.5 -48.5t-119 48.5t-49 118.5zM110 826q0 70 49 119t119 49t118.5 -49t48.5 -119t-48.5 -119t-118.5 -49t-119 49t-49 119z" />
    <glyph glyph-name="semicolon" unicode=";" horiz-adv-x="573" 
d="M58 -243q37 20 54.5 30.5t46 33t41.5 48.5t13 57q0 30 -14.5 58.5t-32.5 48t-32.5 51t-14.5 65.5q0 67 46 117t119 50q83 0 128.5 -64.5t45.5 -158.5q0 -145 -102 -278.5t-249 -177.5zM119 826q0 70 49 119t119 49t119 -49t49 -119t-49 -119t-119 -49t-119 49t-49 119z
" />
    <glyph glyph-name="less" unicode="&#x3c;" horiz-adv-x="1233" 
d="M67 500v197l1033 435v-232l-718 -302l718 -301v-232z" />
    <glyph glyph-name="equal" unicode="=" horiz-adv-x="1252" 
d="M121 270v221h1011v-221h-1011zM121 705v222h1011v-222h-1011z" />
    <glyph glyph-name="greater" unicode="&#x3e;" horiz-adv-x="1232" 
d="M133 65v232l717 301l-717 302v232l1033 -435v-197z" />
    <glyph glyph-name="question" unicode="?" horiz-adv-x="1060" 
d="M57 1201q66 111 186.5 177.5t273.5 66.5q128 0 232.5 -46t170 -143.5t65.5 -231.5q0 -74 -21 -132t-54 -94.5t-73.5 -66.5t-80.5 -56t-73 -54.5t-54 -71t-21 -96.5h-241q0 91 18.5 161t48.5 111.5t66 72.5t72.5 53t66.5 44.5t48.5 55t18.5 76.5q0 78 -55 122.5t-150 44.5
q-173 0 -284 -141zM320 147q0 70 48.5 119.5t118.5 49.5t119.5 -49.5t49.5 -119.5t-49.5 -118.5t-119.5 -48.5t-118.5 48.5t-48.5 118.5z" />
    <glyph glyph-name="at" unicode="@" horiz-adv-x="1703" 
d="M79 456q0 168 57.5 320.5t159.5 268.5t254.5 184.5t332.5 68.5q156 0 291.5 -52t230.5 -142.5t149.5 -218.5t54.5 -276q0 -144 -48.5 -265.5t-146 -198t-225.5 -76.5q-181 0 -213 160q-103 -170 -259 -170q-85 0 -146.5 47.5t-91 123.5t-29.5 170q0 97 33 185.5t92.5 158
t152.5 111t205 41.5q69 0 149 -15.5t136 -36.5q-61 -382 -61 -469q0 -140 89 -140q77 0 123 98t46 262q0 109 -37 205.5t-104 170t-169 116.5t-225 43q-175 0 -314 -87.5t-216 -239t-77 -337.5q0 -268 156.5 -435t422.5 -167q145 0 273 49l38 -153q-148 -57 -327 -57
q-225 0 -398 96.5t-266 267.5t-93 389zM672 407q0 -73 25.5 -118t74.5 -45q63 0 112 74t76 193q24 103 27 207q-31 8 -66 8q-101 0 -175 -94.5t-74 -224.5z" />
    <glyph glyph-name="A" unicode="A" horiz-adv-x="1372" 
d="M14 0l508 1424h325l514 -1424h-308l-112 335h-524l-110 -335h-293zM492 571h373l-188 558z" />
    <glyph glyph-name="B" unicode="B" horiz-adv-x="1273" 
d="M162 0v1424h492q217 0 338.5 -96.5t121.5 -270.5q0 -209 -175 -302q115 -32 189.5 -124t74.5 -224q0 -177 -131 -292t-338 -115h-572zM439 245h257q98 0 159 47t61 138q0 92 -64 139t-173 47h-240v-371zM439 847h198q84 0 140 44.5t56 127.5t-56 122t-151 39h-187v-333z
" />
    <glyph glyph-name="C" unicode="C" horiz-adv-x="1338" 
d="M76 706q0 207 94.5 376.5t260 266t367.5 96.5q137 0 270 -46.5t232 -130.5l-125 -193q-162 120 -352 120q-134 0 -239.5 -64.5t-162.5 -174t-57 -243.5q0 -203 127 -341.5t329 -138.5q94 0 187.5 32t167.5 86l127 -197q-96 -82 -234.5 -128t-278.5 -46q-202 0 -365.5 95
t-255.5 261t-92 370z" />
    <glyph glyph-name="D" unicode="D" horiz-adv-x="1432" 
d="M162 0v1424h503q164 0 295.5 -55t216.5 -151.5t130 -225.5t45 -280q0 -153 -46 -283t-132.5 -225.5t-217.5 -149.5t-293 -54h-501zM445 248h185q223 0 330 112t107 350q0 244 -108.5 355.5t-323.5 111.5h-190v-929z" />
    <glyph glyph-name="E" unicode="E" horiz-adv-x="1173" 
d="M162 0v1424h915v-247h-633v-336h550v-246h-550v-348h649v-247h-931z" />
    <glyph glyph-name="F" unicode="F" horiz-adv-x="1143" 
d="M162 0v1424h921v-247h-639v-364h535v-246h-535v-567h-282z" />
    <glyph glyph-name="G" unicode="G" horiz-adv-x="1485" 
d="M76 702q0 156 55 294t150.5 236.5t229.5 155.5t286 57q138 0 271 -46.5t232 -130.5l-124 -193q-159 120 -353 120q-204 0 -331.5 -141t-127.5 -349q0 -94 29 -180t81.5 -152.5t134 -106t179.5 -39.5q147 0 250 85t110 228h-337v225h629q0 -384 -171.5 -584.5
t-479.5 -200.5q-168 0 -305 59t-225 159t-135.5 229.5t-47.5 274.5z" />
    <glyph glyph-name="H" unicode="H" horiz-adv-x="1476" 
d="M162 0v1424h285v-582h582v582h286v-1424h-286v595h-582v-595h-285z" />
    <glyph glyph-name="I" unicode="I" horiz-adv-x="608" 
d="M162 0v1424h285v-1424h-285z" />
    <glyph glyph-name="J" unicode="J" horiz-adv-x="1034" 
d="M9 231l185 136q73 -127 208 -127q95 0 150.5 59t55.5 175v950h277v-995q0 -196 -121.5 -322.5t-332.5 -126.5q-294 0 -422 251z" />
    <glyph glyph-name="K" unicode="K" horiz-adv-x="1312" 
d="M162 0v1424h285v-542h68l440 542h323l-533 -661l598 -763h-341l-490 625h-65v-625h-285z" />
    <glyph glyph-name="L" unicode="L" horiz-adv-x="1082" 
d="M162 0v1424h283v-1177h614v-247h-897z" />
    <glyph glyph-name="M" unicode="M" horiz-adv-x="1840" 
d="M136 0l56 1424h312l424 -877l417 877h304l56 -1424h-291l-34 967l-361 -778h-197l-372 776l-36 -965h-278z" />
    <glyph glyph-name="N" unicode="N" horiz-adv-x="1493" 
d="M162 0v1424h303l600 -977l-4 977h271v-1424h-309l-594 967l4 -967h-271z" />
    <glyph glyph-name="O" unicode="O" 
d="M75 713q0 157 57 294t155 232.5t234 150.5t290 55q205 0 372.5 -93.5t264 -261t96.5 -376.5q0 -156 -56.5 -292.5t-154 -233.5t-233.5 -152.5t-291 -55.5t-291 55.5t-233.5 152t-153.5 233t-56 292.5zM364 712q0 -211 125.5 -347t319.5 -136t320 136t126 347t-126 347
t-320 136t-319.5 -135.5t-125.5 -347.5z" />
    <glyph glyph-name="P" unicode="P" horiz-adv-x="1244" 
d="M162 0v1424h529q238 0 372.5 -129t134.5 -336q0 -211 -138 -344.5t-368 -133.5h-250v-481h-280zM442 727h222q119 0 185.5 61t66.5 167q0 107 -66.5 166t-185.5 59h-222v-453z" />
    <glyph glyph-name="Q" unicode="Q" 
d="M75 713q0 157 57 294t155 232.5t234 150.5t290 55q205 0 372.5 -93.5t264 -261t96.5 -376.5q0 -289 -181 -494l93 -100l-190 -156l-95 104q-164 -88 -362 -88q-155 0 -291 55.5t-233.5 152t-153.5 233t-56 292.5zM364 712q0 -211 125.5 -347t319.5 -136q99 0 182 36
l-219 239l185 160l218 -239q80 125 80 287q0 211 -126 347t-320 136t-319.5 -135.5t-125.5 -347.5z" />
    <glyph glyph-name="R" unicode="R" horiz-adv-x="1289" 
d="M162 0v1424h523q231 0 367 -124.5t136 -324.5q0 -145 -73.5 -254.5t-203.5 -161.5l340 -559h-335l-293 519h-181v-519h-280zM442 764h214q117 0 182.5 54t65.5 153q0 101 -67.5 155t-180.5 54h-214v-416z" />
    <glyph glyph-name="S" unicode="S" horiz-adv-x="1177" 
d="M56 176l126 198q195 -141 395 -141q108 0 175.5 41.5t67.5 123.5q0 46 -24.5 80.5t-66.5 55.5t-96.5 37.5t-114.5 32t-119.5 34.5t-114 49t-96.5 70.5t-66.5 104.5t-24.5 146q0 105 39 189t107.5 137.5t158.5 82t194 28.5q132 0 261 -44.5t229 -123.5l-124 -192
q-79 54 -172.5 83t-177.5 29q-103 0 -168.5 -43.5t-65.5 -123.5q0 -52 31.5 -88.5t82.5 -55.5t116.5 -38t134 -34.5t134 -46t116.5 -70.5t82.5 -111.5t31.5 -165.5q0 -108 -40 -193t-111 -138.5t-164 -81t-202 -27.5q-294 0 -534 196z" />
    <glyph glyph-name="T" unicode="T" horiz-adv-x="1189" 
d="M36 1176v248h1117v-248h-416v-1176h-285v1176h-416z" />
    <glyph glyph-name="U" unicode="U" horiz-adv-x="1420" 
d="M147 520v904h283v-905q0 -128 81 -207t207 -79q123 0 200.5 77t77.5 209v905h278v-904q0 -243 -156.5 -391.5t-408.5 -148.5t-407 148t-155 392z" />
    <glyph glyph-name="V" unicode="V" horiz-adv-x="1266" 
d="M18 1424h308l314 -994l316 994h293l-493 -1424h-247z" />
    <glyph glyph-name="W" unicode="W" horiz-adv-x="1946" 
d="M23 1424h308l275 -988l247 800h250l255 -805l273 993h294l-454 -1424h-254l-250 769l-243 -769h-251z" />
    <glyph glyph-name="X" unicode="X" horiz-adv-x="1347" 
d="M-7 0l512 729l-485 695h341l319 -470l325 470h323l-482 -682l506 -742h-337l-346 518l-349 -518h-327z" />
    <glyph glyph-name="Y" unicode="Y" horiz-adv-x="1345" 
d="M17 1424h330l331 -566l348 566h309l-522 -832v-592h-282v589z" />
    <glyph glyph-name="Z" unicode="Z" horiz-adv-x="1203" 
d="M66 0v198l690 985h-666v241h1030v-201l-694 -978h704v-245h-1064z" />
    <glyph glyph-name="bracketleft" unicode="[" horiz-adv-x="685" 
d="M169 -335v1809h451v-209h-201v-1388h200v-212h-450z" />
    <glyph glyph-name="backslash" unicode="\" horiz-adv-x="913" 
d="M52 1474h228l577 -1638h-227z" />
    <glyph glyph-name="bracketright" unicode="]" horiz-adv-x="685" 
d="M66 1265v209h451v-1809h-450v212h199v1388h-200z" />
    <glyph glyph-name="asciicircum" unicode="^" horiz-adv-x="1051" 
d="M73 614l352 810h202l352 -810h-233l-220 508l-221 -508h-232z" />
    <glyph glyph-name="underscore" unicode="_" horiz-adv-x="1269" 
d="M116 -185h1038v-103h-1038v103z" />
    <glyph glyph-name="grave" unicode="`" horiz-adv-x="500" 
d="M-17 1473h285l187 -325h-215z" />
    <glyph glyph-name="a" unicode="a" horiz-adv-x="1097" 
d="M55 296q0 150 115.5 240t315.5 90q97 0 203 -22v41q0 82 -55 120t-151 38q-149 0 -279 -71l-80 177q160 113 411 113q204 0 313 -90.5t109 -267.5v-343q0 -62 14.5 -94t54.5 -54l-31 -191q-116 0 -191.5 34t-89.5 104q-47 -72 -128.5 -106t-173.5 -34q-151 0 -254 86
t-103 230zM314 312q0 -61 43 -91t106 -30q86 0 156 49.5t70 128.5v54q-87 19 -167 19q-208 0 -208 -130z" />
    <glyph glyph-name="b" unicode="b" horiz-adv-x="1214" 
d="M124 0v1442l272 48v-592q104 124 293 124q112 0 201 -42.5t143 -115.5t82.5 -164.5t28.5 -194.5q0 -231 -127 -378t-332 -147q-211 0 -319 155l-20 -135h-222zM387 503q0 -120 62 -203.5t178 -83.5q111 0 178.5 79t67.5 206q0 125 -66 203.5t-178 78.5q-113 0 -177.5 -79
t-64.5 -201z" />
    <glyph glyph-name="c" unicode="c" horiz-adv-x="1004" 
d="M69 495q0 159 71 280.5t189 184t262 62.5q101 0 197.5 -31.5t165.5 -86.5l-113 -186q-100 69 -217 69q-124 0 -203 -79t-79 -206q0 -126 78.5 -206t201.5 -80q117 0 219 72l128 -176q-170 -132 -380 -132q-100 0 -192 33t-166 95t-118 162.5t-44 224.5z" />
    <glyph glyph-name="d" unicode="d" horiz-adv-x="1214" 
d="M71 505q0 103 28.5 194.5t82.5 164.5t142.5 115.5t200.5 42.5q191 0 295 -124v544l271 48v-1490h-222l-20 135q-108 -155 -319 -155q-204 0 -331.5 147t-127.5 378zM342 501q0 -127 67.5 -206t179.5 -79q115 0 177 84t62 203q0 122 -64.5 201t-177.5 79
q-112 0 -178 -78.5t-66 -203.5z" />
    <glyph glyph-name="e" unicode="e" horiz-adv-x="1107" 
d="M69 495q0 160 68 281t182.5 183.5t256.5 62.5q144 0 253 -67t165.5 -181.5t56.5 -259.5q0 -34 -5 -91h-706q12 -107 84 -169t187 -62q134 0 255 88l121 -166q-76 -63 -180 -98.5t-217 -35.5q-145 0 -261.5 57.5t-188 176t-71.5 281.5zM343 596h447q-10 92 -66.5 150.5
t-150.5 58.5q-93 0 -154.5 -56.5t-75.5 -152.5z" />
    <glyph glyph-name="f" unicode="f" horiz-adv-x="755" 
d="M40 774v228h173v127q0 176 95 268.5t272 92.5q87 0 210 -29l-31 -215q-77 15 -123 15q-86 0 -118.5 -44.5t-32.5 -139.5v-75h246v-228h-246v-774h-272v774h-173z" />
    <glyph glyph-name="g" unicode="g" horiz-adv-x="1212" 
d="M72 509q0 228 130 370.5t330 142.5q99 0 182 -38t132 -114l20 132h223v-945q0 -236 -143 -367t-380 -131q-260 0 -438 157l124 168q123 -94 284 -94q129 0 205.5 72t76.5 223v53q-103 -126 -298 -126q-107 0 -193 39.5t-141 108t-84.5 158t-29.5 191.5zM342 511
q0 -118 66 -193.5t178 -75.5q114 0 176.5 77.5t62.5 193.5q0 118 -63 195.5t-175 77.5q-113 0 -179 -78t-66 -197z" />
    <glyph glyph-name="h" unicode="h" horiz-adv-x="1171" 
d="M124 0v1442l272 48v-585q104 117 291 117q180 0 275.5 -110.5t95.5 -301.5v-610h-271v581q0 93 -46 146t-135 53q-93 0 -151.5 -57t-58.5 -149v-574h-272z" />
    <glyph glyph-name="i" unicode="i" horiz-adv-x="519" 
d="M97 1314q0 67 48 115t116 48q67 0 114.5 -47.5t47.5 -115.5t-47.5 -115.5t-114.5 -47.5q-68 0 -116 48t-48 115zM124 0v1002h271v-1002h-271z" />
    <glyph glyph-name="j" unicode="j" horiz-adv-x="519" 
d="M-70 -222q48 12 80 26.5t60 41t41 69.5t13 105v982h271v-1067q0 -97 -38 -172t-101.5 -118t-137.5 -64.5t-154 -21.5zM96 1314q0 67 48 115t116 48t115.5 -47.5t47.5 -115.5t-47.5 -115.5t-115.5 -47.5t-116 48t-48 115z" />
    <glyph glyph-name="k" unicode="k" horiz-adv-x="1079" 
d="M124 0v1442l271 48v-826h66l263 338h325l-350 -452l384 -550h-324l-297 425h-67v-425h-271z" />
    <glyph glyph-name="l" unicode="l" horiz-adv-x="536" 
d="M119 236v1206l270 48v-1145q0 -64 15.5 -96.5t60.5 -55.5l-35 -213q-130 0 -220.5 67t-90.5 189z" />
    <glyph glyph-name="m" unicode="m" horiz-adv-x="1730" 
d="M124 0v1002h221l20 -128q48 71 125.5 109.5t166.5 38.5q90 0 169 -38.5t123 -109.5q51 74 135.5 111t182.5 37q178 0 264 -109.5t86 -302.5v-610h-272v594q0 185 -158 186h-3q-88 0 -134 -58q-46 -60 -46 -158v-564h-268v594q0 87 -39 136.5t-119 49.5q-89 0 -136 -60
t-47 -156v-564h-271z" />
    <glyph glyph-name="n" unicode="n" horiz-adv-x="1159" 
d="M124 0v1002h221l21 -128q107 148 316 148q178 0 271 -111t93 -301v-610h-271v594q0 87 -45.5 136.5t-131.5 49.5q-94 0 -148.5 -59.5t-54.5 -156.5v-564h-271z" />
    <glyph glyph-name="o" unicode="o" horiz-adv-x="1186" 
d="M68 501q0 232 150 376.5t376 144.5t375 -144t149 -375q0 -154 -69.5 -274t-189 -184.5t-267.5 -64.5q-225 0 -374.5 145t-149.5 376zM339 501q0 -123 72.5 -204t180.5 -81q109 0 182 80.5t73 204.5q0 122 -72.5 202t-181.5 80t-181.5 -79.5t-72.5 -202.5z" />
    <glyph glyph-name="p" unicode="p" horiz-adv-x="1214" 
d="M124 -441v1443h221l20 -135q53 77 136.5 116t183.5 39q204 0 331 -147.5t127 -378.5q0 -103 -28.5 -194.5t-82.5 -164t-142.5 -115t-200.5 -42.5q-189 0 -295 124v-497zM386 498q0 -122 65 -200.5t178 -78.5q112 0 178 78t66 203q0 127 -67.5 206.5t-179.5 79.5
q-115 0 -177.5 -84.5t-62.5 -203.5z" />
    <glyph glyph-name="q" unicode="q" horiz-adv-x="1215" 
d="M73 496q0 232 127 379t331 147q211 0 319 -155l20 135h222v-1395l-272 -48v545q-104 -124 -293 -124q-112 0 -200.5 42.5t-143 115t-82.5 164t-28 194.5zM343 500q0 -125 66 -203t178 -78q113 0 177.5 78.5t64.5 200.5q0 120 -62 204t-178 84q-111 0 -178.5 -79.5
t-67.5 -206.5z" />
    <glyph glyph-name="r" unicode="r" horiz-adv-x="775" 
d="M124 0v1002h222l22 -150l2 -1q41 88 105 129.5t161 41.5q66 0 131 -21l-43 -251q-54 16 -102 16q-67 0 -113.5 -27t-70.5 -77.5t-34 -108t-10 -133.5v-420h-270z" />
    <glyph glyph-name="s" unicode="s" horiz-adv-x="932" 
d="M54 137l116 156q143 -97 275 -97q68 0 111 22.5t43 69.5q0 36 -28 59t-73 36t-99.5 25t-109.5 31.5t-100 49t-73 84.5t-28 131q0 106 53.5 179.5t137.5 106t192 32.5q211 0 365 -125l-96 -160q-128 76 -249 76q-61 0 -99.5 -23.5t-38.5 -66.5q0 -31 22 -53.5t58.5 -34.5
t83 -25t94.5 -25t94.5 -34.5t83 -52.5t58.5 -81t22 -118q0 -105 -53.5 -178.5t-143 -107t-207.5 -33.5q-126 0 -218 39t-193 118z" />
    <glyph glyph-name="t" unicode="t" horiz-adv-x="755" 
d="M31 774v228h171v303l270 47v-350h234v-228h-234v-355q0 -60 13.5 -99.5t44.5 -63t64.5 -35.5t89.5 -23l-33 -218q-69 0 -131 11t-121.5 38t-102 68t-68.5 106t-26 147v424h-171z" />
    <glyph glyph-name="u" unicode="u" horiz-adv-x="1152" 
d="M113 393v609h272v-595q0 -89 44 -137t130 -48q94 0 145.5 58.5t51.5 157.5v564h272v-1002h-222l-19 125q-103 -145 -310 -145q-180 0 -272 110.5t-92 302.5z" />
    <glyph glyph-name="v" unicode="v" horiz-adv-x="1074" 
d="M26 1002h292l224 -714l240 714h273l-386 -1002h-270z" />
    <glyph glyph-name="w" unicode="w" horiz-adv-x="1642" 
d="M29 1002h293l184 -687l187 687h259l193 -687l198 687h271l-338 -1002h-264l-193 688l-189 -688h-265z" />
    <glyph glyph-name="x" unicode="x" horiz-adv-x="1084" 
d="M6 0l376 514l-354 488h320l195 -290l202 290h298l-344 -474l389 -528h-321l-228 328l-229 -328h-304z" />
    <glyph glyph-name="y" unicode="y" horiz-adv-x="1114" 
d="M25 1002h293l245 -700l263 700h274l-476 -1177q-108 -266 -350 -266q-86 0 -187 38l34 213q48 -14 97 -14q63 0 108.5 30.5t74.5 104.5l22 57z" />
    <glyph glyph-name="z" unicode="z" horiz-adv-x="1015" 
d="M70 0v199l493 578h-467v225h836v-191l-502 -584h506v-227h-866z" />
    <glyph glyph-name="braceleft" unicode="{" horiz-adv-x="688" 
d="M56 474v191q91 12 120.5 96t29.5 302q0 78 10.5 137.5t33.5 103t53.5 73.5t77 49.5t98 30t121.5 17.5l24 -192q-46 -6 -78 -22.5t-50 -37t-27.5 -53.5t-12 -62t-2.5 -73v-104q0 -55 -1 -85.5t-7.5 -82.5t-19.5 -83.5t-39 -63.5t-64 -47q43 -21 71.5 -60.5t40.5 -94.5
t15.5 -99.5t3.5 -104.5v-104q0 -43 2.5 -72.5t12 -62.5t27.5 -53.5t50 -37t78 -22.5l-24 -192q-84 8 -143 22.5t-109.5 43t-79.5 73t-45.5 112t-16.5 161.5q0 219 -29 302t-121 95z" />
    <glyph glyph-name="bar" unicode="|" horiz-adv-x="554" 
d="M168 -421v1891h218v-1891h-218z" />
    <glyph glyph-name="braceright" unicode="}" horiz-adv-x="687" 
d="M65 -143q46 6 78 22.5t49.5 37t27 54t12 62t2.5 72.5v104q0 47 2 82.5t9.5 82.5t21 81t39 65t60.5 48q-38 15 -64 47t-39 64t-20 83.5t-8 82.5t-1 85v104q0 44 -2.5 73t-12 62t-27 53.5t-49.5 37t-78 22.5l23 192q70 -7 121.5 -17.5t98 -30t77 -49.5t53.5 -73.5
t33.5 -103t10.5 -137.5q0 -218 29.5 -302t120.5 -96v-191q-91 -12 -120.5 -95.5t-29.5 -301.5q0 -94 -16.5 -161.5t-45.5 -112t-79.5 -73t-109.5 -43t-143 -22.5z" />
    <glyph glyph-name="asciitilde" unicode="~" horiz-adv-x="1259" 
d="M112 454q18 194 98.5 295t204.5 101q62 0 115 -18t89.5 -44t69 -51.5t68 -43.5t71.5 -18q89 0 120 167h215q-18 -194 -98.5 -295t-205.5 -101q-62 0 -115 18t-89.5 44t-68.5 51.5t-67.5 43.5t-71.5 18q-89 0 -119 -167h-216z" />
    <glyph glyph-name="uni00A0" unicode="&#xa0;" horiz-adv-x="491" 
 />
    <glyph glyph-name="exclamdown" unicode="&#xa1;" horiz-adv-x="568" 
d="M117 925q0 70 49 119t119 49t119 -49t49 -119t-49 -119.5t-119 -49.5t-119 49.5t-49 119.5zM139 -352l29 971h234l29 -971h-292z" />
    <glyph glyph-name="cent" unicode="&#xa2;" horiz-adv-x="1059" 
d="M84 686q0 208 115 345t297 171v187h188v-182q172 -22 284 -113l-112 -186q-100 69 -218 69q-124 0 -202.5 -79t-78.5 -206q0 -126 78.5 -206t201.5 -80q117 0 219 72l128 -176q-132 -103 -300 -126v-182h-188v186q-85 16 -158 55.5t-130.5 101t-90.5 151.5t-33 198z" />
    <glyph glyph-name="sterling" unicode="&#xa3;" horiz-adv-x="1161" 
d="M101 0v211q72 35 122.5 116.5t50.5 186.5q0 26 -3 53h-170v210h140q-13 98 -13 158q0 219 126.5 343t328.5 124q61 0 117 -12.5t110.5 -39.5t100 -75.5t75.5 -115.5l-179 -132q-73 125 -208 125q-39 0 -72 -10.5t-62.5 -34.5t-46.5 -69.5t-17 -109.5q0 -57 16 -151h233
v-210h-203q2 -40 2 -59q0 -94 -19.5 -153.5t-57.5 -119.5h586v-235h-957z" />
    <glyph glyph-name="currency" unicode="&#xa4;" horiz-adv-x="1314" 
d="M103 286l151 146q-73 113 -73 251q0 139 73 252l-151 148l151 151l152 -151q118 72 253 72q134 0 250 -70l149 149l154 -151l-150 -146q76 -117 76 -256q0 -137 -76 -251l150 -144l-154 -153l-149 151q-118 -71 -253 -71q-138 0 -253 71l-149 -151zM403 683
q0 -106 73.5 -182.5t179.5 -76.5q104 0 181 75t77 183q0 107 -74.5 184t-181.5 77q-104 0 -179.5 -75.5t-75.5 -184.5z" />
    <glyph glyph-name="yen" unicode="&#xa5;" horiz-adv-x="1236" 
d="M61 1382h294l262 -548l276 548h284l-325 -616h196v-171h-287l-10 -20v-118h297v-172h-297v-285h-275v285h-290v172h290v114l-13 24h-277v171h190z" />
    <glyph glyph-name="brokenbar" unicode="&#xa6;" horiz-adv-x="490" 
d="M136 -311v653h219v-653h-219zM136 708v652h219v-652h-219z" />
    <glyph glyph-name="section" unicode="&#xa7;" horiz-adv-x="1096" 
d="M76 586q0 163 186 266q-65 39 -98.5 95t-33.5 139q0 89 38.5 159t103.5 113t145 65t169 22q205 0 360 -120l-96 -160q-46 30 -116 53t-142 23q-81 0 -134.5 -32t-53.5 -96q0 -38 21 -69t56.5 -53t82 -41.5t97.5 -38t102 -38.5t97.5 -47t82 -60t56.5 -81t21 -106
q0 -160 -168 -263q138 -75 138 -240q0 -115 -68.5 -200.5t-175 -127t-233.5 -41.5q-70 0 -132 13t-113.5 38.5t-84.5 47t-74 53.5l115 158q140 -103 292 -103q93 0 147.5 34t54.5 93q0 45 -35.5 81.5t-92 64t-125 53.5t-137 57.5t-125 68.5t-92 93.5t-35.5 126.5zM307 632
q0 -100 191 -169l175 -64q107 58 107 137q0 56 -52.5 97t-144.5 74l-165 57q-56 -31 -83.5 -59.5t-27.5 -72.5z" />
    <glyph glyph-name="dieresis" unicode="&#xa8;" horiz-adv-x="873" 
d="M95 1295q0 58 40 97.5t98 39.5t97 -39.5t39 -97.5t-39 -97t-97 -39t-98 39t-40 97zM504 1295q0 58 40 97.5t98 39.5t96.5 -39.5t38.5 -97.5t-38.5 -97t-96.5 -39t-98 39t-40 97z" />
    <glyph glyph-name="copyright" unicode="&#xa9;" horiz-adv-x="1627" 
d="M81 715q0 150 58 285t156 232.5t233.5 155t285.5 57.5t285.5 -57.5t233.5 -155t155.5 -232.5t57.5 -285t-57.5 -286t-155.5 -234.5t-233.5 -156.5t-285.5 -58t-285.5 58t-233.5 156.5t-156 234.5t-58 286zM239 714q0 -162 76 -296.5t208 -211t291 -76.5q119 0 225.5 45
t183 122.5t121 186t44.5 230.5q0 161 -75.5 294.5t-207.5 209.5t-291 76t-291 -76t-208 -209.5t-76 -294.5zM449 708q0 116 41 213.5t127.5 160.5t204.5 63q80 0 152.5 -29.5t128.5 -96t68 -159.5h-163q-10 68 -61 106.5t-121 38.5q-94 0 -149.5 -77.5t-55.5 -214.5
q0 -135 53.5 -211t147.5 -76q70 0 121.5 43.5t64.5 117.5h163q-13 -138 -112.5 -222.5t-238.5 -84.5q-120 0 -205.5 59t-125.5 154t-40 215z" />
    <glyph glyph-name="ordfeminine" unicode="&#xaa;" horiz-adv-x="833" 
d="M80 917q0 101 78.5 162.5t214.5 61.5q64 0 129 -13v22q0 101 -130 101q-98 0 -190 -50l-57 126q111 78 282 78q140 0 214 -61t74 -181v-227q0 -42 9.5 -62.5t36.5 -35.5l-22 -134q-170 2 -199 83q-62 -85 -196 -85q-103 0 -173.5 58.5t-70.5 156.5zM266 928q0 -38 27 -57
t66 -19q55 0 99 31.5t44 83.5v33q-51 11 -104 11q-132 0 -132 -83z" />
    <glyph glyph-name="guillemotleft" unicode="&#xab;" horiz-adv-x="1148" 
d="M69 520l297 421h247l-271 -421l271 -420h-247zM528 520l297 421h247l-271 -421l271 -420h-247z" />
    <glyph glyph-name="logicalnot" unicode="&#xac;" horiz-adv-x="1262" 
d="M103 594v222h1010v-635h-234v413h-776z" />
    <glyph glyph-name="uni00AD" unicode="&#xad;" horiz-adv-x="774" 
d="M116 436v210h543v-210h-543z" />
    <glyph glyph-name="registered" unicode="&#xae;" horiz-adv-x="1067" 
d="M78 989q0 190 133 323t323 133t322.5 -133t132.5 -323q0 -125 -60.5 -229.5t-165.5 -165.5t-229 -61t-229 61t-166 166t-61 229zM192 989q0 -146 99 -246t243 -100t242.5 99.5t98.5 246.5t-98.5 246t-242.5 99t-243 -99.5t-99 -245.5zM364 752v497h180q197 0 197 -149
q0 -105 -90 -137l103 -211h-125l-94 193h-59v-193h-112zM476 1042h57q51 0 74 13.5t23 42.5q0 30 -23.5 42.5t-75.5 12.5h-55v-111z" />
    <glyph glyph-name="macron" unicode="&#xaf;" horiz-adv-x="862" 
d="M118 1205v173h627v-173h-627z" />
    <glyph glyph-name="degree" unicode="&#xb0;" horiz-adv-x="788" 
d="M73 1124q0 133 94 227t227 94t227.5 -94t94.5 -227t-94.5 -227.5t-227.5 -94.5t-227 94.5t-94 227.5zM227 1123q0 -70 48.5 -118.5t118.5 -48.5t119 48.5t49 118.5t-49 119t-119 49t-118.5 -49t-48.5 -119z" />
    <glyph glyph-name="plusminus" unicode="&#xb1;" horiz-adv-x="1236" 
d="M113 1v221h1011v-221h-1011zM113 651v221h390v324h231v-324h390v-221h-390v-325h-231v325h-390z" />
    <glyph glyph-name="uni00B2" unicode="&#xb2;" horiz-adv-x="688" 
d="M46 1515q46 69 121 111t167 42q122 0 203 -70.5t81 -187.5q0 -63 -26.5 -118.5t-67.5 -95t-83 -72t-81.5 -65t-55.5 -58.5h325v-168h-574v124q28 65 77 122t98 94.5t94 73t73.5 74.5t28.5 81q0 45 -28.5 71t-74.5 26q-45 0 -88 -26.5t-74 -66.5z" />
    <glyph glyph-name="uni00B3" unicode="&#xb3;" horiz-adv-x="682" 
d="M30 957l107 118q85 -85 176 -85q50 0 86 28t36 75q0 74 -88 93q-37 8 -142 10v145q99 0 142 14q57 18 57 68q0 37 -26.5 58t-69.5 21q-67 0 -156 -68l-94 125q105 110 266 110q119 0 198 -63.5t79 -168.5q0 -107 -91 -163q119 -59 119 -194q0 -80 -46.5 -140t-115 -88.5
t-146.5 -28.5q-172 0 -291 134z" />
    <glyph glyph-name="acute" unicode="&#xb4;" horiz-adv-x="500" 
d="M45 1148l187 325h285l-256 -325h-216z" />
    <glyph glyph-name="uni00B5" unicode="&#xb5;" horiz-adv-x="1219" 
d="M159 -421v1423h243v-603q0 -92 43.5 -149.5t122.5 -57.5q214 0 214 377v433h244v-614q0 -46 0.5 -68.5t5 -56t13.5 -51t26 -34.5t43 -26v-172q-216 0 -281 167q-95 -167 -268 -167q-94 0 -164 64v-465h-242z" />
    <glyph glyph-name="paragraph" unicode="&#xb6;" horiz-adv-x="1356" 
d="M60 998q0 206 142.5 316t394.5 110h560v-1747h-197v1574h-226v-1574h-198v890q-213 9 -344.5 129t-131.5 302z" />
    <glyph glyph-name="periodcentered" unicode="&#xb7;" horiz-adv-x="541" 
d="M103 584q0 70 48.5 119t118.5 49t119.5 -49t49.5 -119t-49.5 -119t-119.5 -49t-118.5 49t-48.5 119z" />
    <glyph glyph-name="cedilla" unicode="&#xb8;" horiz-adv-x="451" 
d="M-2 -391l39 105q70 -35 132 -35q29 0 49.5 13t20.5 41q0 23 -18.5 39t-47.5 24t-56 11.5t-53 3.5l112 189h153l-73 -113q65 -9 110 -47.5t45 -101.5q0 -88 -68.5 -131.5t-169.5 -43.5q-95 0 -175 46z" />
    <glyph glyph-name="uni00B9" unicode="&#xb9;" horiz-adv-x="655" 
d="M72 833v168h186v399h-182v146q84 0 148.5 29t76.5 85h149v-659h171v-168h-549z" />
    <glyph glyph-name="ordmasculine" unicode="&#xba;" horiz-adv-x="863" 
d="M74 1054q0 156 102.5 253.5t256.5 97.5q153 0 254.5 -96.5t101.5 -252.5q0 -157 -102 -255.5t-256 -98.5q-153 0 -255 98t-102 254zM270 1054q0 -80 46 -132.5t115 -52.5q70 0 116.5 52.5t46.5 132.5t-46.5 132t-115.5 52q-70 0 -116 -51.5t-46 -132.5z" />
    <glyph glyph-name="guillemotright" unicode="&#xbb;" horiz-adv-x="1149" 
d="M77 100l271 420l-271 421h247l297 -421l-297 -420h-247zM536 100l271 420l-271 421h247l297 -421l-297 -420h-247z" />
    <glyph glyph-name="onequarter" unicode="&#xbc;" horiz-adv-x="1714" 
d="M90 598v168h186v400h-182v145q84 0 148.5 29t76.5 85h149v-659h170v-168h-548zM400 -41l848 1506h198l-849 -1506h-197zM986 164v120l394 542h155v-508h115v-154h-117v-164h-186v164h-361zM1176 318h174v233z" />
    <glyph glyph-name="onehalf" unicode="&#xbd;" horiz-adv-x="1808" 
d="M84 598v168h186v400h-182v145q84 0 148.5 29t76.5 85h148v-659h172v-168h-549zM394 -41l848 1506h198l-849 -1506h-197zM1156 681q46 69 120.5 111t166.5 42q122 0 203.5 -70.5t81.5 -187.5q0 -63 -26 -118t-67 -95t-83 -72.5t-82 -65t-56 -58.5h326v-168h-576v124
q28 65 77 122t98 95t94.5 73t74 74t28.5 81q0 45 -28.5 71.5t-74.5 26.5q-88 0 -162 -93z" />
    <glyph glyph-name="threequarters" unicode="&#xbe;" horiz-adv-x="1670" 
d="M63 723l107 116q86 -84 175 -84q50 0 86.5 28t36.5 75q0 74 -88 93q-37 8 -143 10v146q102 0 142 13q57 18 57 68q0 36 -26 57t-70 21q-68 0 -156 -67l-93 125q106 111 265 111q119 0 198.5 -63.5t79.5 -168.5q0 -107 -91 -163q53 -26 85.5 -75.5t32.5 -119.5
q0 -80 -46 -140t-114.5 -88.5t-146.5 -28.5q-171 0 -291 135zM355 -41l849 1506h197l-849 -1506h-197zM941 164v120l394 542h154v-508h115v-154h-116v-164h-186v164h-361zM1131 318h174v233z" />
    <glyph glyph-name="questiondown" unicode="&#xbf;" horiz-adv-x="1046" 
d="M68 48q0 74 21 132t54 94.5t73.5 66.5t81 56t73.5 54.5t54 71t21 96.5h240q0 -91 -18.5 -161t-48.5 -111.5t-66 -72.5t-72 -53t-66 -44.5t-48.5 -55t-18.5 -76.5q0 -78 54.5 -122.5t149.5 -44.5q173 0 284 141l161 -148q-66 -111 -187 -177t-274 -66q-95 0 -178.5 27
t-148.5 78t-103 132.5t-38 182.5zM398 925q0 70 49 119t119 49t119 -49t49 -119t-49 -119.5t-119 -49.5t-119 49.5t-49 119.5z" />
    <glyph glyph-name="Agrave" unicode="&#xc0;" horiz-adv-x="1372" 
d="M14 0l508 1424h325l514 -1424h-308l-112 335h-524l-110 -335h-293zM283 1820h304l201 -263h-230zM492 571h373l-188 558z" />
    <glyph glyph-name="Aacute" unicode="&#xc1;" horiz-adv-x="1372" 
d="M14 0l508 1424h325l514 -1424h-308l-112 335h-524l-110 -335h-293zM492 571h373l-188 558zM596 1553l200 263h304l-274 -263h-230z" />
    <glyph glyph-name="Acircumflex" unicode="&#xc2;" horiz-adv-x="1372" 
d="M14 0l508 1424h325l514 -1424h-308l-112 335h-524l-110 -335h-293zM353 1552l257 264h167l260 -264h-217l-124 137l-128 -137h-215zM492 571h373l-188 558z" />
    <glyph glyph-name="Atilde" unicode="&#xc3;" horiz-adv-x="1372" 
d="M14 0l508 1424h325l514 -1424h-308l-112 335h-524l-110 -335h-293zM399 1556q10 123 62 188t124 65q39 0 72 -17t51 -37t38 -37t37 -17q46 0 62 104h145q-10 -123 -62.5 -189t-123.5 -66q-39 0 -72.5 17t-51.5 37t-38 37t-36 17q-47 0 -63 -102h-144zM492 571h373
l-188 558z" />
    <glyph glyph-name="Adieresis" unicode="&#xc4;" horiz-adv-x="1372" 
d="M14 0l508 1424h325l514 -1424h-308l-112 335h-524l-110 -335h-293zM355 1675q0 58 40 97.5t98 39.5t96.5 -39.5t38.5 -97.5t-38.5 -97t-96.5 -39t-98 39t-40 97zM492 571h373l-188 558zM764 1675q0 58 39.5 97.5t97.5 39.5t97 -39.5t39 -97.5t-39 -97t-97 -39t-97.5 39
t-39.5 97z" />
    <glyph glyph-name="Aring" unicode="&#xc5;" horiz-adv-x="1372" 
d="M14 0l508 1424h325l514 -1424h-308l-112 335h-524l-110 -335h-293zM481 1747q0 88 62.5 151t150.5 63q89 0 151.5 -62.5t62.5 -151.5q0 -88 -62.5 -150.5t-151.5 -62.5q-88 0 -150.5 62.5t-62.5 150.5zM492 571h373l-188 558zM590 1747q0 -43 30.5 -73t73.5 -30t73.5 30
t30.5 73t-30 73.5t-74 30.5q-43 0 -73.5 -30.5t-30.5 -73.5z" />
    <glyph glyph-name="AE" unicode="&#xc6;" horiz-adv-x="1883" 
d="M9 0l696 1424h1081v-247h-634v-336h551v-246h-551v-348h651v-247h-933v310h-404l-144 -310h-313zM566 546h304v631h-12z" />
    <glyph glyph-name="Ccedilla" unicode="&#xc7;" horiz-adv-x="1338" 
d="M76 706q0 155 55.5 292t151.5 235t230 155t285 57q137 0 270 -46.5t232 -130.5l-124 -193q-162 120 -353 120q-201 0 -330 -138.5t-129 -343.5q0 -203 127 -341.5t329 -138.5q95 0 188.5 32t167.5 86l126 -197q-81 -70 -194 -114t-235 -56l-66 -103q65 -8 110 -47
t45 -103q0 -87 -68.5 -130t-169.5 -43q-96 0 -175 45l39 106q70 -35 132 -35q29 0 49.5 12.5t20.5 40.5q0 23 -18.5 39.5t-47.5 24t-56 11t-53 3.5l105 178q-186 16 -333 114t-229 257.5t-82 351.5z" />
    <glyph glyph-name="Egrave" unicode="&#xc8;" horiz-adv-x="1173" 
d="M162 0v1424h915v-247h-633v-336h550v-246h-550v-348h649v-247h-931zM264 1820h304l200 -263h-230z" />
    <glyph glyph-name="Eacute" unicode="&#xc9;" horiz-adv-x="1173" 
d="M162 0v1424h915v-247h-633v-336h550v-246h-550v-348h649v-247h-931zM477 1553l200 263h304l-274 -263h-230z" />
    <glyph glyph-name="Ecircumflex" unicode="&#xca;" horiz-adv-x="1173" 
d="M162 0v1424h915v-247h-633v-336h550v-246h-550v-348h649v-247h-931zM284 1552l257 264h167l260 -264h-217l-124 137l-128 -137h-215z" />
    <glyph glyph-name="Edieresis" unicode="&#xcb;" horiz-adv-x="1173" 
d="M162 0v1424h915v-247h-633v-336h550v-246h-550v-348h649v-247h-931zM284 1677q0 58 40 97.5t98 39.5t96.5 -39.5t38.5 -97.5t-38.5 -97.5t-96.5 -39.5t-98 39.5t-40 97.5zM694 1677q0 58 39.5 97.5t97.5 39.5t97 -39.5t39 -97.5t-39 -97.5t-97 -39.5t-97.5 39.5
t-39.5 97.5z" />
    <glyph glyph-name="Igrave" unicode="&#xcc;" horiz-adv-x="608" 
d="M-65 1820h304l200 -263h-230zM162 0v1424h285v-1424h-285z" />
    <glyph glyph-name="Iacute" unicode="&#xcd;" horiz-adv-x="608" 
d="M162 0v1424h285v-1424h-285zM180 1553l200 263h305l-275 -263h-230z" />
    <glyph glyph-name="Icircumflex" unicode="&#xce;" horiz-adv-x="608" 
d="M-37 1552l256 264h167l260 -264h-216l-125 137l-128 -137h-214zM162 0v1424h285v-1424h-285z" />
    <glyph glyph-name="Idieresis" unicode="&#xcf;" horiz-adv-x="608" 
d="M-37 1677q0 58 40 97.5t98 39.5t97 -39.5t39 -97.5t-39 -97.5t-97 -39.5t-98 39.5t-40 97.5zM162 0v1424h285v-1424h-285zM372 1677q0 58 40 97.5t98 39.5t96.5 -39.5t38.5 -97.5t-38.5 -97.5t-96.5 -39.5t-98 39.5t-40 97.5z" />
    <glyph glyph-name="Eth" unicode="&#xd0;" horiz-adv-x="1444" 
d="M39 607v203h135v614h503q164 0 295.5 -55t216.5 -151.5t130.5 -225.5t45.5 -280q0 -205 -79.5 -364.5t-237.5 -253.5t-373 -94h-501v607h-135zM457 248h185q223 0 330.5 111.5t107.5 350.5q0 243 -108.5 355t-323.5 112h-191v-367h263v-203h-263v-359z" />
    <glyph glyph-name="Ntilde" unicode="&#xd1;" horiz-adv-x="1493" 
d="M162 0v1424h303l600 -977l-4 977h271v-1424h-309l-594 967l4 -967h-271zM460 1556q11 123 63 188t123 65q40 0 73 -17t51 -37t38 -37t37 -17q46 0 62 104h144q-10 -123 -62.5 -189t-123.5 -66q-39 0 -72.5 17t-51.5 37t-38 37t-36 17q-46 0 -62 -102h-145z" />
    <glyph glyph-name="Ograve" unicode="&#xd2;" 
d="M75 713q0 157 57 294t155 232.5t234 150.5t290 55q205 0 372.5 -93.5t264 -261t96.5 -376.5q0 -156 -56.5 -292.5t-154 -233.5t-233.5 -152.5t-291 -55.5t-291 55.5t-233.5 152t-153.5 233t-56 292.5zM364 712q0 -211 125.5 -347t319.5 -136t320 136t126 347t-126 347
t-320 136t-319.5 -135.5t-125.5 -347.5zM456 1828h304l200 -263h-229z" />
    <glyph glyph-name="Oacute" unicode="&#xd3;" 
d="M75 713q0 157 57 294t155 232.5t234 150.5t290 55q205 0 372.5 -93.5t264 -261t96.5 -376.5q0 -156 -56.5 -292.5t-154 -233.5t-233.5 -152.5t-291 -55.5t-291 55.5t-233.5 152t-153.5 233t-56 292.5zM364 712q0 -211 125.5 -347t319.5 -136t320 136t126 347t-126 347
t-320 136t-319.5 -135.5t-125.5 -347.5zM674 1561l200 263h304l-274 -263h-230z" />
    <glyph glyph-name="Ocircumflex" unicode="&#xd4;" 
d="M75 713q0 157 57 294t155 232.5t234 150.5t290 55q205 0 372.5 -93.5t264 -261t96.5 -376.5q0 -156 -56.5 -292.5t-154 -233.5t-233.5 -152.5t-291 -55.5t-291 55.5t-233.5 152t-153.5 233t-56 292.5zM364 712q0 -211 125.5 -347t319.5 -136t320 136t126 347t-126 347
t-320 136t-319.5 -135.5t-125.5 -347.5zM468 1561l255 264h169l259 -264h-217l-124 137l-128 -137h-214z" />
    <glyph glyph-name="Otilde" unicode="&#xd5;" 
d="M75 713q0 157 57 294t155 232.5t234 150.5t290 55q205 0 372.5 -93.5t264 -261t96.5 -376.5q0 -156 -56.5 -292.5t-154 -233.5t-233.5 -152.5t-291 -55.5t-291 55.5t-233.5 152t-153.5 233t-56 292.5zM364 712q0 -211 125.5 -347t319.5 -136t320 136t126 347t-126 347
t-320 136t-319.5 -135.5t-125.5 -347.5zM514 1562q10 123 62 188t124 65q40 0 73 -16.5t51 -37t38 -37t37 -16.5q46 0 62 103h144q-10 -123 -62.5 -189t-123.5 -66q-39 0 -72.5 17t-51.5 37.5t-38 37.5t-36 17q-46 0 -62 -103h-145z" />
    <glyph glyph-name="Odieresis" unicode="&#xd6;" 
d="M75 713q0 157 57 294t155 232.5t234 150.5t290 55q205 0 372.5 -93.5t264 -261t96.5 -376.5q0 -156 -56.5 -292.5t-154 -233.5t-233.5 -152.5t-291 -55.5t-291 55.5t-233.5 152t-153.5 233t-56 292.5zM364 712q0 -211 125.5 -347t319.5 -136t320 136t126 347t-126 347
t-320 136t-319.5 -135.5t-125.5 -347.5zM469 1684q0 58 40 97.5t98 39.5t96.5 -39.5t38.5 -97.5t-38.5 -97.5t-96.5 -39.5t-98 39.5t-40 97.5zM879 1684q0 58 39.5 97.5t97.5 39.5t97 -39.5t39 -97.5t-39 -97.5t-97 -39.5t-97.5 39.5t-39.5 97.5z" />
    <glyph glyph-name="multiply" unicode="&#xd7;" horiz-adv-x="1074" 
d="M84 296l303 302l-303 303l153 151l302 -302l302 302l148 -151l-300 -301l302 -303l-150 -153l-304 304l-302 -304z" />
    <glyph glyph-name="Oslash" unicode="&#xd8;" 
d="M75 713q0 157 57 294t155 232.5t234 150.5t289 55q194 0 357 -86l153 201l162 -130l-147 -194q99 -99 154 -233t55 -289q0 -156 -56.5 -292.5t-154 -233.5t-233.5 -152.5t-291 -55.5q-195 0 -358 86l-152 -202l-162 130l147 195q-100 99 -154.5 233.5t-54.5 290.5z
M363 712q0 -176 89 -301l558 738q-95 46 -201 46q-194 0 -320 -135.5t-126 -347.5zM609 275q90 -46 200 -46q194 0 319.5 136t125.5 347q0 174 -88 300z" />
    <glyph glyph-name="Ugrave" unicode="&#xd9;" horiz-adv-x="1420" 
d="M147 520v904h283v-905q0 -128 81 -207t207 -79q123 0 200.5 77t77.5 209v905h278v-904q0 -243 -156.5 -391.5t-408.5 -148.5t-407 148t-155 392zM366 1823h304l201 -263h-230z" />
    <glyph glyph-name="Uacute" unicode="&#xda;" horiz-adv-x="1420" 
d="M147 520v904h283v-905q0 -128 81 -207t207 -79q123 0 200.5 77t77.5 209v905h278v-904q0 -243 -156.5 -391.5t-408.5 -148.5t-407 148t-155 392zM563 1556l200 263h304l-274 -263h-230z" />
    <glyph glyph-name="Ucircumflex" unicode="&#xdb;" horiz-adv-x="1420" 
d="M147 520v904h283v-905q0 -128 81 -207t207 -79q123 0 200.5 77t77.5 209v905h278v-904q0 -243 -156.5 -391.5t-408.5 -148.5t-407 148t-155 392zM380 1556l256 264h168l259 -264h-216l-125 137l-128 -137h-214z" />
    <glyph glyph-name="Udieresis" unicode="&#xdc;" horiz-adv-x="1420" 
d="M147 520v904h283v-905q0 -128 81 -207t207 -79q123 0 200.5 77t77.5 209v905h278v-904q0 -243 -156.5 -391.5t-408.5 -148.5t-407 148t-155 392zM370 1681q0 58 40 97.5t98 39.5t96.5 -39.5t38.5 -97.5t-38.5 -97.5t-96.5 -39.5t-98 39.5t-40 97.5zM779 1681
q0 58 39.5 97.5t97.5 39.5t97 -39.5t39 -97.5t-39 -97.5t-97 -39.5t-97.5 39.5t-39.5 97.5z" />
    <glyph glyph-name="Yacute" unicode="&#xdd;" horiz-adv-x="1345" 
d="M17 1424h330l331 -566l348 566h309l-522 -832v-592h-282v589zM543 1547l200 263h305l-274 -263h-231z" />
    <glyph glyph-name="Thorn" unicode="&#xde;" horiz-adv-x="1212" 
d="M162 0v1424h273v-246h254q207 0 343 -127t136 -323t-136 -324t-342 -128h-255v-276h-273zM435 525h214q102 0 171 52t69 155q0 102 -68.5 150.5t-175.5 48.5h-210v-406z" />
    <glyph glyph-name="germandbls" unicode="&#xdf;" horiz-adv-x="1239" 
d="M124 0v1053q0 87 24.5 159t67 123t101.5 86t127 52t143 17q198 0 325.5 -107.5t127.5 -278.5q0 -57 -16.5 -104t-39.5 -77t-46.5 -54t-40 -47.5t-16.5 -46.5t16.5 -43t42.5 -37t57.5 -35.5t63 -44t57.5 -57.5t42.5 -81t16.5 -110q0 -175 -122.5 -281t-310.5 -106
q-46 0 -93 8.5t-74.5 17t-75.5 25.5l35 218q91 -31 177 -31q85 0 142.5 43.5t57.5 113.5q0 52 -34 90.5t-82 64t-96.5 52.5t-82.5 70.5t-34 102.5q0 45 19.5 79.5t47.5 58t56 47.5t47.5 59.5t19.5 81.5q0 78 -49.5 125.5t-130.5 47.5q-90 0 -145 -60.5t-55 -165.5v-1028
h-270z" />
    <glyph glyph-name="agrave" unicode="&#xe0;" horiz-adv-x="1097" 
d="M55 296q0 150 115.5 240t315.5 90q97 0 203 -22v41q0 82 -55 120t-151 38q-149 0 -279 -71l-80 177q160 113 411 113q204 0 313 -90.5t109 -267.5v-343q0 -62 14.5 -94t54.5 -54l-31 -191q-116 0 -191.5 34t-89.5 104q-47 -72 -128.5 -106t-173.5 -34q-151 0 -254 86
t-103 230zM203 1460h285l187 -325h-215zM314 312q0 -62 43 -91.5t106 -29.5q86 0 156 49.5t70 128.5v54q-87 19 -168 19q-207 0 -207 -130z" />
    <glyph glyph-name="aacute" unicode="&#xe1;" horiz-adv-x="1097" 
d="M55 296q0 150 115.5 240t315.5 90q97 0 203 -22v41q0 82 -55 120t-151 38q-149 0 -279 -71l-80 177q160 113 411 113q204 0 313 -90.5t109 -267.5v-343q0 -62 14.5 -94t54.5 -54l-31 -191q-116 0 -191.5 34t-89.5 104q-47 -72 -128.5 -106t-173.5 -34q-151 0 -254 86
t-103 230zM314 312q0 -62 43 -91.5t106 -29.5q86 0 156 49.5t70 128.5v54q-87 19 -168 19q-207 0 -207 -130zM416 1135l187 325h284l-256 -325h-215z" />
    <glyph glyph-name="acircumflex" unicode="&#xe2;" horiz-adv-x="1097" 
d="M55 296q0 150 115.5 240t315.5 90q97 0 203 -22v41q0 82 -55 120t-151 38q-149 0 -279 -71l-80 177q160 113 411 113q204 0 313 -90.5t109 -267.5v-343q0 -62 14.5 -94t54.5 -54l-31 -191q-116 0 -191.5 34t-89.5 104q-47 -72 -128.5 -106t-173.5 -34q-151 0 -254 86
t-103 230zM234 1134l239 327h157l243 -327h-203l-116 170l-120 -170h-200zM314 312q0 -62 43 -91.5t106 -29.5q86 0 156 49.5t70 128.5v54q-87 19 -168 19q-207 0 -207 -130z" />
    <glyph glyph-name="atilde" unicode="&#xe3;" horiz-adv-x="1097" 
d="M55 296q0 150 115.5 240t315.5 90q97 0 203 -22v41q0 82 -55 120t-151 38q-149 0 -279 -71l-80 177q160 113 411 113q204 0 313 -90.5t109 -267.5v-343q0 -62 14.5 -94t54.5 -54l-31 -191q-116 0 -191.5 34t-89.5 104q-47 -72 -128.5 -106t-173.5 -34q-151 0 -254 86
t-103 230zM262 1152q10 128 62 196t124 68q40 0 73 -17.5t51 -38.5t38 -38.5t37 -17.5q47 0 62 107h144q-10 -128 -62 -196t-124 -68q-32 0 -59.5 11.5t-46 28.5t-34 33.5t-30 28t-28.5 11.5q-46 0 -62 -108h-145zM314 312q0 -62 43 -91.5t106 -29.5q86 0 156 49.5t70 128.5
v54q-87 19 -168 19q-207 0 -207 -130z" />
    <glyph glyph-name="adieresis" unicode="&#xe4;" horiz-adv-x="1097" 
d="M55 296q0 150 115.5 240t315.5 90q97 0 203 -22v41q0 82 -55 120t-151 38q-149 0 -279 -71l-80 177q160 113 411 113q204 0 313 -90.5t109 -267.5v-343q0 -62 14.5 -94t54.5 -54l-31 -191q-116 0 -191.5 34t-89.5 104q-47 -72 -128.5 -106t-173.5 -34q-151 0 -254 86
t-103 230zM211 1270q0 58 40.5 97.5t98.5 39.5t96.5 -39.5t38.5 -97.5t-38.5 -97t-96.5 -39t-98.5 39.5t-40.5 96.5zM314 312q0 -62 43 -91.5t106 -29.5q86 0 156 49.5t70 128.5v54q-87 19 -168 19q-207 0 -207 -130zM621 1270q0 58 39.5 97.5t97.5 39.5t97 -39.5t39 -97.5
t-39 -97t-97 -39t-97.5 39t-39.5 97z" />
    <glyph glyph-name="aring" unicode="&#xe5;" horiz-adv-x="1097" 
d="M55 296q0 150 115.5 240t315.5 90q97 0 203 -22v41q0 82 -55 120t-151 38q-149 0 -279 -71l-80 177q160 113 411 113q204 0 313 -90.5t109 -267.5v-343q0 -62 14.5 -94t54.5 -54l-31 -191q-116 0 -191.5 34t-89.5 104q-47 -72 -128.5 -106t-173.5 -34q-151 0 -254 86
t-103 230zM314 312q0 -62 43 -91.5t106 -29.5q86 0 156 49.5t70 128.5v54q-87 19 -168 19q-207 0 -207 -130zM339 1338q0 88 62.5 151t150.5 63t150.5 -62.5t62.5 -151.5q0 -88 -62.5 -151t-150.5 -63t-150.5 63t-62.5 151zM448 1338q0 -43 30.5 -73.5t73.5 -30.5t73.5 30.5
t30.5 73.5q0 44 -30 74t-74 30q-43 0 -73.5 -30.5t-30.5 -73.5z" />
    <glyph glyph-name="ae" unicode="&#xe6;" horiz-adv-x="1726" 
d="M55 294q0 151 115.5 241.5t316.5 90.5q97 0 203 -22v41q0 82 -55 120t-151 38q-149 0 -279 -71l-80 177q160 113 411 113q228 0 333 -114q134 114 324 114q218 0 347 -143t129 -365q0 -45 -4 -91h-707q13 -108 85 -169.5t186 -61.5q135 0 256 88l121 -165
q-76 -64 -180 -99.5t-217 -35.5t-211 37.5t-168 108.5q-64 -66 -165 -106t-223 -40q-180 0 -283.5 85.5t-103.5 228.5zM315 312q0 -61 43 -91t106 -30q86 0 156 49.5t70 128.5v54q-87 19 -168 19q-207 0 -207 -130zM961 596h447q-9 92 -65.5 150.5t-151.5 58.5
q-93 0 -154.5 -56.5t-75.5 -152.5z" />
    <glyph glyph-name="ccedilla" unicode="&#xe7;" horiz-adv-x="1004" 
d="M69 495q0 160 70.5 281t188.5 183.5t262 62.5q101 0 197.5 -31.5t165.5 -86.5l-112 -186q-100 69 -218 69q-124 0 -202.5 -79t-78.5 -206q0 -126 78 -206t201 -80q118 0 220 72l128 -176q-131 -103 -291 -126l-60 -93q65 -8 110 -47t45 -103q0 -87 -68.5 -130.5
t-169.5 -43.5q-95 0 -176 46l40 105q70 -35 131 -35q29 0 50 13t21 41q0 23 -18.5 39.5t-48 24t-56.5 11t-53 3.5l99 166q-91 10 -171.5 47t-144.5 99.5t-101.5 156.5t-37.5 209z" />
    <glyph glyph-name="egrave" unicode="&#xe8;" horiz-adv-x="1107" 
d="M69 495q0 160 68 281t182.5 183.5t256.5 62.5q144 0 253 -67t165.5 -181.5t56.5 -259.5q0 -34 -5 -91h-706q12 -107 84 -169t187 -62q134 0 255 88l121 -166q-76 -63 -180 -98.5t-217 -35.5q-145 0 -261.5 57.5t-188 176t-71.5 281.5zM265 1460h285l187 -325h-215z
M343 596h447q-10 92 -66.5 150.5t-150.5 58.5q-93 0 -154.5 -56.5t-75.5 -152.5z" />
    <glyph glyph-name="eacute" unicode="&#xe9;" horiz-adv-x="1107" 
d="M69 495q0 160 68 281t182.5 183.5t256.5 62.5q144 0 253 -67t165.5 -181.5t56.5 -259.5q0 -34 -5 -91h-706q12 -107 84 -169t187 -62q134 0 255 88l121 -166q-76 -63 -180 -98.5t-217 -35.5q-145 0 -261.5 57.5t-188 176t-71.5 281.5zM343 596h447q-10 92 -66.5 150.5
t-150.5 58.5q-93 0 -154.5 -56.5t-75.5 -152.5zM452 1135l188 325h284l-257 -325h-215z" />
    <glyph glyph-name="ecircumflex" unicode="&#xea;" horiz-adv-x="1107" 
d="M69 495q0 160 68 281t182.5 183.5t256.5 62.5q144 0 253 -67t165.5 -181.5t56.5 -259.5q0 -34 -5 -91h-706q12 -107 84 -169t187 -62q134 0 255 88l121 -166q-76 -63 -180 -98.5t-217 -35.5q-145 0 -261.5 57.5t-188 176t-71.5 281.5zM261 1134l239 327h156l243 -327
h-202l-117 170l-119 -170h-200zM343 596h447q-10 92 -66.5 150.5t-150.5 58.5q-93 0 -154.5 -56.5t-75.5 -152.5z" />
    <glyph glyph-name="edieresis" unicode="&#xeb;" horiz-adv-x="1107" 
d="M69 495q0 160 68 281t182.5 183.5t256.5 62.5q144 0 253 -67t165.5 -181.5t56.5 -259.5q0 -34 -5 -91h-706q12 -107 84 -169t187 -62q134 0 255 88l121 -166q-76 -63 -180 -98.5t-217 -35.5q-145 0 -261.5 57.5t-188 176t-71.5 281.5zM249 1270q0 58 40 97.5t98 39.5
t96.5 -39.5t38.5 -97.5t-38.5 -97t-96.5 -39t-98 39t-40 97zM343 596h447q-10 92 -66.5 150.5t-150.5 58.5q-93 0 -154.5 -56.5t-75.5 -152.5zM659 1270q0 58 39.5 97.5t97.5 39.5t97 -39.5t39 -97.5t-39 -97t-97 -39t-97.5 39t-39.5 97z" />
    <glyph glyph-name="igrave" unicode="&#xec;" horiz-adv-x="519" 
d="M-87 1459h285l187 -325h-215zM124 0v1002h271v-1002h-271z" />
    <glyph glyph-name="iacute" unicode="&#xed;" horiz-adv-x="519" 
d="M124 0v1002h271v-1002h-271zM141 1134l187 325h284l-256 -325h-215z" />
    <glyph glyph-name="icircumflex" unicode="&#xee;" horiz-adv-x="519" 
d="M-59 1134l238 327h157l243 -327h-202l-116 170l-120 -170h-200zM124 0v1002h271v-1002h-271z" />
    <glyph glyph-name="idieresis" unicode="&#xef;" horiz-adv-x="519" 
d="M-80 1268q0 58 39.5 97.5t97.5 39.5t96.5 -39.5t38.5 -97.5t-38.5 -97.5t-96.5 -39.5t-97.5 39.5t-39.5 97.5zM124 0v1002h271v-1002h-271zM329 1268q0 58 40 97.5t97 39.5q58 0 97 -39.5t39 -97.5t-39 -97.5t-97 -39.5q-57 0 -97 39.5t-40 97.5z" />
    <glyph glyph-name="eth" unicode="&#xf0;" horiz-adv-x="1139" 
d="M72 481q0 224 134 361.5t333 137.5q71 0 117 -26l1 1q-46 92 -134 185l-167 -90l-111 119l156 85q-71 59 -153 113l174 108q82 -39 176 -116l159 86l111 -118l-148 -80q151 -158 249 -352t98 -392q0 -237 -140.5 -380t-361.5 -143q-217 0 -355 137.5t-138 363.5zM328 481
q0 -115 62.5 -192.5t173.5 -77.5q110 0 174.5 78t64.5 194q0 114 -62.5 191t-175.5 77t-175 -77.5t-62 -192.5z" />
    <glyph glyph-name="ntilde" unicode="&#xf1;" horiz-adv-x="1159" 
d="M124 0v1002h221l21 -128q107 148 316 148q178 0 271 -111t93 -301v-610h-271v594q0 87 -45.5 136.5t-131.5 49.5q-94 0 -148.5 -59.5t-54.5 -156.5v-564h-271zM298 1153q10 128 62 196t124 68q39 0 72.5 -17.5t51.5 -38.5t38 -38.5t37 -17.5q47 0 62 107h144
q-10 -128 -62 -196.5t-123 -68.5q-40 0 -73 17.5t-51.5 39t-38.5 39t-36 17.5q-47 0 -63 -107h-144z" />
    <glyph glyph-name="ograve" unicode="&#xf2;" horiz-adv-x="1186" 
d="M68 501q0 232 150 376.5t376 144.5t375 -144t149 -375q0 -154 -69.5 -274t-189 -184.5t-267.5 -64.5q-225 0 -374.5 145t-149.5 376zM275 1460h284l188 -325h-215zM339 501q0 -123 72.5 -204t180.5 -81q109 0 182 80.5t73 204.5q0 122 -72.5 202t-181.5 80t-181.5 -79.5
t-72.5 -202.5z" />
    <glyph glyph-name="oacute" unicode="&#xf3;" horiz-adv-x="1186" 
d="M68 501q0 232 150 376.5t376 144.5t375 -144t149 -375q0 -154 -69.5 -274t-189 -184.5t-267.5 -64.5q-225 0 -374.5 145t-149.5 376zM339 501q0 -123 72.5 -204t180.5 -81q109 0 182 80.5t73 204.5q0 122 -72.5 202t-181.5 80t-181.5 -79.5t-72.5 -202.5zM449 1135
l187 325h284l-256 -325h-215z" />
    <glyph glyph-name="ocircumflex" unicode="&#xf4;" horiz-adv-x="1186" 
d="M68 501q0 232 150 376.5t376 144.5t375 -144t149 -375q0 -154 -69.5 -274t-189 -184.5t-267.5 -64.5q-225 0 -374.5 145t-149.5 376zM274 1134l238 327h157l243 -327h-202l-117 170l-119 -170h-200zM339 501q0 -123 72.5 -204t180.5 -81q109 0 182 80.5t73 204.5
q0 122 -72.5 202t-181.5 80t-181.5 -79.5t-72.5 -202.5z" />
    <glyph glyph-name="otilde" unicode="&#xf5;" horiz-adv-x="1186" 
d="M68 501q0 232 150 376.5t376 144.5t375 -144t149 -375q0 -154 -69.5 -274t-189 -184.5t-267.5 -64.5q-225 0 -374.5 145t-149.5 376zM297 1152q11 128 63.5 196t123.5 68q40 0 73 -17.5t51 -38.5t38 -38.5t36 -17.5q48 0 63 107h144q-10 -128 -62 -196t-124 -68
q-32 0 -59.5 11.5t-46 28.5t-34 33.5t-30.5 28t-29 11.5q-46 0 -62 -108h-145zM339 501q0 -123 72.5 -204t180.5 -81q109 0 182 80.5t73 204.5q0 122 -72.5 202t-181.5 80t-181.5 -79.5t-72.5 -202.5z" />
    <glyph glyph-name="odieresis" unicode="&#xf6;" horiz-adv-x="1186" 
d="M68 501q0 232 150 376.5t376 144.5t375 -144t149 -375q0 -154 -69.5 -274t-189 -184.5t-267.5 -64.5q-225 0 -374.5 145t-149.5 376zM252 1270q0 58 40 97.5t98 39.5t96.5 -39.5t38.5 -97.5t-38.5 -97t-96.5 -39t-98 39t-40 97zM339 501q0 -123 72.5 -204t180.5 -81
q109 0 182 80.5t73 204.5q0 122 -72.5 202t-181.5 80t-181.5 -79.5t-72.5 -202.5zM661 1270q0 58 40 97.5t98 39.5t96.5 -39.5t38.5 -97.5t-38.5 -97t-96.5 -39t-98 39t-40 97z" />
    <glyph glyph-name="divide" unicode="&#xf7;" horiz-adv-x="1195" 
d="M92 488v222h1011v-222h-1011zM447 184q0 63 44 107t107 44t106.5 -44t43.5 -107t-43.5 -107t-106.5 -44t-107 44t-44 107zM447 1013q0 63 44 107t107 44t106.5 -44t43.5 -107t-43.5 -107t-106.5 -44t-107 44t-44 107z" />
    <glyph glyph-name="oslash" unicode="&#xf8;" horiz-adv-x="1186" 
d="M68 501q0 232 150 376.5t376 144.5q126 0 235 -49l103 152l113 -81l-99 -146q172 -148 172 -395q0 -154 -69.5 -274t-189 -184.5t-267.5 -64.5q-127 0 -234 49l-103 -153l-114 82l99 146q-82 71 -127 172.5t-45 224.5zM339 501q0 -103 51 -177l298 440q-46 19 -95 19
q-109 0 -181.5 -79.5t-72.5 -202.5zM497 234q44 -18 95 -18q109 0 182 80.5t73 204.5q0 100 -51 175z" />
    <glyph glyph-name="ugrave" unicode="&#xf9;" horiz-adv-x="1152" 
d="M113 393v609h272v-595q0 -89 44 -137t130 -48q94 0 145.5 58.5t51.5 157.5v564h272v-1002h-222l-19 125q-103 -145 -310 -145q-180 0 -272 110.5t-92 302.5zM248 1461h284l187 -325h-215z" />
    <glyph glyph-name="uacute" unicode="&#xfa;" horiz-adv-x="1152" 
d="M113 393v609h272v-595q0 -89 44 -137t130 -48q94 0 145.5 58.5t51.5 157.5v564h272v-1002h-222l-19 125q-103 -145 -310 -145q-180 0 -272 110.5t-92 302.5zM431 1136l187 325h284l-256 -325h-215z" />
    <glyph glyph-name="ucircumflex" unicode="&#xfb;" horiz-adv-x="1152" 
d="M113 393v609h272v-595q0 -89 44 -137t130 -48q94 0 145.5 58.5t51.5 157.5v564h272v-1002h-222l-19 125q-103 -145 -310 -145q-180 0 -272 110.5t-92 302.5zM262 1136l239 326h157l243 -326h-203l-116 169l-119 -169h-201z" />
    <glyph glyph-name="udieresis" unicode="&#xfc;" horiz-adv-x="1152" 
d="M113 393v609h272v-595q0 -89 44 -137t130 -48q94 0 145.5 58.5t51.5 157.5v564h272v-1002h-222l-19 125q-103 -145 -310 -145q-180 0 -272 110.5t-92 302.5zM229 1269q0 58 40 98t98 40t97 -40t39 -98t-39 -97t-97 -39t-98 39t-40 97zM639 1269q0 58 39.5 98t97.5 40
t97 -40t39 -98t-39 -97t-97 -39t-97.5 39t-39.5 97z" />
    <glyph glyph-name="yacute" unicode="&#xfd;" horiz-adv-x="1114" 
d="M25 1002h293l245 -700l263 700h274l-476 -1177q-108 -266 -350 -266q-86 0 -187 38l34 213q48 -14 97 -14q63 0 108.5 30.5t74.5 104.5l22 57zM447 1153l187 325h284l-256 -325h-215z" />
    <glyph glyph-name="thorn" unicode="&#xfe;" horiz-adv-x="1214" 
d="M124 -441v1883l271 48v-592q104 124 296 124q90 0 165 -28t127.5 -76.5t89 -114t54 -140.5t17.5 -156q0 -149 -54.5 -267.5t-160.5 -189t-246 -70.5q-187 0 -288 120v-493zM386 502q0 -122 64.5 -203t178.5 -81q112 0 178 80t66 205t-65.5 203.5t-178.5 78.5
q-116 0 -179.5 -81.5t-63.5 -201.5z" />
    <glyph glyph-name="ydieresis" unicode="&#xff;" horiz-adv-x="1114" 
d="M25 1002h293l245 -700l263 700h274l-476 -1177q-108 -266 -350 -266q-86 0 -187 38l34 213q48 -14 97 -14q63 0 108.5 30.5t74.5 104.5l22 57zM241 1287q0 58 40 97.5t98 39.5t96.5 -39.5t38.5 -97.5t-38.5 -97.5t-96.5 -39.5t-98 39.5t-40 97.5zM651 1287
q0 58 39.5 97.5t97.5 39.5t97 -39.5t39 -97.5t-39 -97.5t-97 -39.5t-97.5 39.5t-39.5 97.5z" />
    <glyph glyph-name="OE" unicode="&#x152;" horiz-adv-x="2159" 
d="M75 713q0 157 57 294t155 232.5t234 150.5t289 55q181 0 338 -77v56h916v-247h-634v-336h551v-246h-551v-348h649v-247h-931v57q-154 -77 -339 -77q-155 0 -291 55.5t-233.5 152t-153.5 233t-56 292.5zM364 712q0 -211 125.5 -347t319.5 -136q106 0 193.5 44.5
t145.5 124.5v628q-58 80 -145.5 124.5t-193.5 44.5q-194 0 -319.5 -135.5t-125.5 -347.5z" />
    <glyph glyph-name="oe" unicode="&#x153;" horiz-adv-x="1881" 
d="M68 501q0 232 150 376.5t376 144.5q116 0 215 -41.5t169 -117.5q141 159 371 159q217 0 346 -143t129 -365q0 -45 -4 -91h-707q12 -107 84 -169t187 -62q134 0 255 88l121 -165q-76 -64 -179.5 -99.5t-216.5 -35.5q-118 0 -218.5 40.5t-170.5 117.5q-70 -76 -169 -117
t-214 -41q-225 0 -374.5 145t-149.5 376zM339 501q0 -123 72.5 -204t180.5 -81q109 0 182 80.5t73 204.5q0 122 -72.5 202t-181.5 80t-181.5 -79.5t-72.5 -202.5zM1116 596h447q-9 92 -65.5 150.5t-151.5 58.5q-93 0 -154.5 -56.5t-75.5 -152.5z" />
    <glyph glyph-name="Ydieresis" unicode="&#x178;" horiz-adv-x="1345" 
d="M17 1424h330l331 -566l348 566h309l-522 -832v-592h-282v589zM348 1671q0 58 40.5 97.5t98.5 39.5t96.5 -39.5t38.5 -97.5t-38.5 -97.5t-96.5 -39.5t-98.5 39.5t-40.5 97.5zM758 1671q0 58 39.5 97.5t97.5 39.5t96.5 -39.5t38.5 -97.5t-38.5 -97.5t-96.5 -39.5
t-97.5 39.5t-39.5 97.5z" />
    <glyph glyph-name="circumflex" unicode="&#x2c6;" horiz-adv-x="733" 
d="M47 1147l239 326h156l244 -326h-203l-117 170l-119 -170h-200z" />
    <glyph glyph-name="tilde" unicode="&#x2dc;" horiz-adv-x="756" 
d="M82 1174q11 128 63.5 196t123.5 68q40 0 73 -17.5t51 -39t38 -39t37 -17.5q46 0 62 108h143q-10 -128 -62 -196.5t-123 -68.5q-32 0 -59.5 11.5t-46 28t-34 33.5t-30 28.5t-28.5 11.5q-47 0 -63 -107h-145z" />
    <glyph glyph-name="uni2000" unicode="&#x2000;" horiz-adv-x="980" 
 />
    <glyph glyph-name="uni2001" unicode="&#x2001;" horiz-adv-x="1961" 
 />
    <glyph glyph-name="uni2002" unicode="&#x2002;" horiz-adv-x="980" 
 />
    <glyph glyph-name="uni2003" unicode="&#x2003;" horiz-adv-x="1961" 
 />
    <glyph glyph-name="uni2004" unicode="&#x2004;" horiz-adv-x="653" 
 />
    <glyph glyph-name="uni2005" unicode="&#x2005;" horiz-adv-x="490" 
 />
    <glyph glyph-name="uni2006" unicode="&#x2006;" horiz-adv-x="326" 
 />
    <glyph glyph-name="uni2007" unicode="&#x2007;" horiz-adv-x="326" 
 />
    <glyph glyph-name="uni2008" unicode="&#x2008;" horiz-adv-x="245" 
 />
    <glyph glyph-name="uni2009" unicode="&#x2009;" horiz-adv-x="392" 
 />
    <glyph glyph-name="uni200A" unicode="&#x200a;" horiz-adv-x="108" 
 />
    <glyph glyph-name="uni2010" unicode="&#x2010;" horiz-adv-x="774" 
d="M116 436v210h543v-210h-543z" />
    <glyph glyph-name="uni2011" unicode="&#x2011;" horiz-adv-x="774" 
d="M116 436v210h543v-210h-543z" />
    <glyph glyph-name="figuredash" unicode="&#x2012;" horiz-adv-x="774" 
d="M116 436v210h543v-210h-543z" />
    <glyph glyph-name="endash" unicode="&#x2013;" horiz-adv-x="1222" 
d="M117 441v200h988v-200h-988z" />
    <glyph glyph-name="emdash" unicode="&#x2014;" horiz-adv-x="2176" 
d="M117 441v200h1942v-200h-1942z" />
    <glyph glyph-name="quoteleft" unicode="&#x2018;" horiz-adv-x="522" 
d="M77 1057q0 138 96.5 264.5t236.5 168.5l47 -113q-35 -19 -51.5 -29t-44 -31.5t-39.5 -46t-12 -53.5q0 -28 14 -55.5t30.5 -46.5t30.5 -48.5t14 -62.5q0 -64 -44 -111t-114 -47q-79 0 -121.5 60.5t-42.5 150.5z" />
    <glyph glyph-name="quoteright" unicode="&#x2019;" horiz-adv-x="524" 
d="M77 959q35 19 51.5 29t44 31.5t39.5 46t12 53.5t-14 56t-30.5 46t-30.5 48.5t-14 62.5q0 64 43.5 111t113.5 47q79 0 122 -61t43 -150q0 -138 -96.5 -264.5t-236.5 -168.5z" />
    <glyph glyph-name="quotesinglbase" unicode="&#x201a;" horiz-adv-x="513" 
d="M36 -231q29 16 40.5 22.5t37.5 24t37.5 31.5t22 36t10.5 46q0 29 -14 56t-30.5 46t-30.5 48.5t-14 62.5q0 64 43.5 111t113.5 47q79 0 122 -61t43 -150q0 -137 -97 -264.5t-237 -169.5z" />
    <glyph glyph-name="quotedblleft" unicode="&#x201c;" horiz-adv-x="935" 
d="M77 1057q0 138 96.5 264.5t237.5 168.5l46 -113q-35 -19 -51.5 -29t-44 -31.5t-39.5 -46t-12 -53.5q0 -28 14 -55.5t30.5 -46.5t30.5 -48.5t14 -62.5q0 -64 -44 -111t-114 -47q-78 0 -121 61t-43 150zM490 1057q0 138 96.5 264.5t236.5 168.5l46 -113q-28 -15 -40.5 -22
t-37 -24.5t-36.5 -31.5t-22 -36t-10 -46q0 -28 14 -55.5t30.5 -46.5t30.5 -48.5t14 -62.5q0 -64 -44 -111t-114 -47q-79 0 -121.5 61t-42.5 150z" />
    <glyph glyph-name="quotedblright" unicode="&#x201d;" horiz-adv-x="937" 
d="M77 959q35 19 51.5 29t44 31.5t39.5 46t12 53.5t-14 56t-30.5 46t-30.5 48.5t-14 62.5q0 64 43.5 111t113.5 47q79 0 122 -61t43 -150q0 -138 -96.5 -264.5t-236.5 -168.5zM490 959q35 19 51.5 29t44 31.5t39.5 46t12 53.5t-14 56t-31 46t-31 48.5t-14 62.5q0 64 44 111
t114 47q78 0 121 -61t43 -150q0 -138 -96.5 -264.5t-236.5 -168.5z" />
    <glyph glyph-name="quotedblbase" unicode="&#x201e;" horiz-adv-x="925" 
d="M36 -231q29 16 40.5 22.5t37.5 24t37.5 31.5t22 36t10.5 46q0 29 -14 56t-30.5 46t-30.5 48.5t-14 62.5q0 64 43.5 111t113.5 47q79 0 122 -61t43 -150q0 -137 -97 -264.5t-237 -169.5zM449 -231q29 16 40.5 22.5t37.5 24t37.5 31.5t22 36t10.5 46q0 29 -14 56t-31 46
t-31 48.5t-14 62.5q0 64 44 111t114 47q78 0 121 -61t43 -150q0 -138 -96.5 -265t-236.5 -169z" />
    <glyph glyph-name="bullet" unicode="&#x2022;" horiz-adv-x="917" 
d="M120 684q0 140 99 239t239 99t239 -99t99 -239t-99 -239t-239 -99t-239 99t-99 239z" />
    <glyph glyph-name="ellipsis" unicode="&#x2026;" horiz-adv-x="1828" 
d="M91 147q0 70 49 119.5t119 49.5t119 -49.5t49 -119.5t-49 -118.5t-119 -48.5t-119 48.5t-49 118.5zM747 147q0 70 49 119.5t119 49.5q69 0 118.5 -49.5t49.5 -119.5q0 -69 -49.5 -118t-118.5 -49q-70 0 -119 48.5t-49 118.5zM1402 147q0 70 49 119.5t119 49.5t119 -49.5
t49 -119.5t-49 -118.5t-119 -48.5t-119 48.5t-49 118.5z" />
    <glyph glyph-name="uni202F" unicode="&#x202f;" horiz-adv-x="392" 
 />
    <glyph glyph-name="guilsinglleft" unicode="&#x2039;" horiz-adv-x="689" 
d="M69 520l297 421h247l-271 -421l271 -420h-247z" />
    <glyph glyph-name="guilsinglright" unicode="&#x203a;" horiz-adv-x="690" 
d="M77 100l271 420l-271 421h247l297 -421l-297 -420h-247z" />
    <glyph glyph-name="uni205F" unicode="&#x205f;" horiz-adv-x="490" 
 />
    <glyph glyph-name="Euro" unicode="&#x20ac;" horiz-adv-x="1318" 
d="M63 490l44 147h103q-1 15 -1 48q0 48 2 71h-138l43 145h119q56 224 213 362.5t364 138.5q117 0 228 -45.5t192 -126.5l-117 -183q-57 49 -128.5 78t-144.5 29q-111 0 -194 -69t-125 -184h479l-43 -145h-468q-3 -33 -3 -65q0 -18 2 -54h433l-44 -147h-359
q41 -119 124 -189.5t198 -70.5q74 0 146 29t127 77l119 -187q-77 -79 -193 -124t-235 -45q-212 0 -368 141t-208 369h-167z" />
    <glyph glyph-name="trademark" unicode="&#x2122;" horiz-adv-x="1944" 
d="M66 1277v147h682v-147h-257v-711h-167v711h-258zM869 566v858h231l236 -583l233 583h228v-858h-167v593h-1l-240 -593h-112l-239 593h-1v-593h-168z" />
    <glyph glyph-name="uni25FC" unicode="&#x25fc;" horiz-adv-x="1001" 
d="M0 0v1002h1002v-1002h-1002z" />
    <glyph glyph-name="uniFB01" unicode="&#xfb01;" horiz-adv-x="1275" 
d="M40 774v228h174v127q0 176 94.5 268.5t271.5 92.5q79 0 183 -23l-31 -216q-50 10 -96 10q-86 0 -118.5 -44.5t-32.5 -139.5v-75h247v-228h-247v-774h-271v774h-174zM853 1314q0 68 47.5 115.5t115.5 47.5t115.5 -47.5t47.5 -115.5t-47.5 -115.5t-115.5 -47.5t-115.5 47.5
t-47.5 115.5zM880 0v1002h271v-1002h-271z" />
    <glyph glyph-name="uniFB02" unicode="&#xfb02;" horiz-adv-x="1292" 
d="M40 774v228h174v127q0 176 94.5 268.5t271.5 92.5q79 0 183 -23l-31 -216q-50 10 -96 10q-86 0 -118.5 -44.5t-32.5 -139.5v-75h247v-228h-247v-774h-271v774h-174zM874 236v1206l270 48v-1145q0 -64 16 -96.5t61 -55.5l-35 -213q-130 0 -221 67t-91 189z" />
    </font>
</defs>
</svg>
