<svg xmlns="http://www.w3.org/2000/svg" width="37.85" height="37.61" viewBox="0 0 37.85 37.61"><path d="M30.41,0H18.84a7.44,7.44,0,0,0-7.43,7.44V20.86a.53.53,0,0,0,0,.12,1.56,1.56,0,0,1-.31,0H5.71A5.71,5.71,0,0,0,0,26.7v5.2a5.71,5.71,0,0,0,5.71,5.71h5.2a5.71,5.71,0,0,0,5.71-5.71V26.67a.58.58,0,0,1,0-.19,1,1,0,0,1,.31,0H30.41A7.45,7.45,0,0,0,37.85,19V7.44A7.45,7.45,0,0,0,30.41,0Zm2.23,7.44V19a2.23,2.23,0,0,1-2.23,2.22H16.61c0-.11,0-.22,0-.33V7.44a2.23,2.23,0,0,1,2.22-2.23H30.41A2.23,2.23,0,0,1,32.64,7.44ZM11.43,26.21c0,.23,0,.41,0,.53V31.9a.51.51,0,0,1-.5.5H5.71a.51.51,0,0,1-.5-.5V26.7a.51.51,0,0,1,.5-.49h5.72Z" fill="#414042"/></svg>