<?xml version="1.0" encoding="utf-8"?>
<!-- Generator: Adobe Illustrator 19.1.0, SVG Export Plug-In . SVG Version: 6.00 Build 0)  -->
<!DOCTYPE svg PUBLIC "-//W3C//DTD SVG 1.1//EN" "http://www.w3.org/Graphics/SVG/1.1/DTD/svg11.dtd">
<svg version="1.1" id="Layer_1" xmlns="http://www.w3.org/2000/svg" xmlns:xlink="http://www.w3.org/1999/xlink" x="0px" y="0px"
	 viewBox="0 0 100 100" style="enable-background:new 0 0 100 100;" xml:space="preserve">
<style type="text/css">
	.st0{fill:#FFFFFF;}
</style>
<g>
	<g>
		<path class="st0" d="M77.4,75.6c-18.3-12.3-36.6,12.3-54.8,0c0-17.1,0-34.1,0-51.2c18.3,12.3,36.6-12.3,54.8,0
			C77.4,41.5,77.4,58.5,77.4,75.6z M23.6,75.2C41.2,85.8,58.8,63.4,76.4,74c0-16.4,0-32.8,0-49.2C58.8,14.2,41.2,36.6,23.6,26
			C23.6,42.4,23.6,58.8,23.6,75.2z"/>
		<path class="st0" d="M26.7,30.7c0,14.3,0,28.6,0,43c15.5,6.1,31.1-10.4,46.6-4.4c0-14.3,0-28.6,0-43
			C57.8,20.3,42.2,36.8,26.7,30.7z M69.7,64.6c-13.1-2.4-26.2,8.8-39.3,6.4c0-4.4,0-8.8,0-13.2c3.6-2,7.2-4.9,10.8-8.4
			c3.6,3,7.2,5.5,10.8,8.1c3-2.5,6-4.9,9-7c2.9,1.5,5.9,3.4,8.8,6C69.7,59.4,69.7,62,69.7,64.6z"/>
	</g>
</g>
</svg>
