<?xml version="1.0" encoding="utf-8"?>
<!-- Generator: Adobe Illustrator 19.1.0, SVG Export Plug-In . SVG Version: 6.00 Build 0)  -->
<!DOCTYPE svg PUBLIC "-//W3C//DTD SVG 1.1//EN" "http://www.w3.org/Graphics/SVG/1.1/DTD/svg11.dtd">
<svg version="1.1" id="Layer_1" xmlns="http://www.w3.org/2000/svg" xmlns:xlink="http://www.w3.org/1999/xlink" x="0px" y="0px"
	 viewBox="0 0 100 100" style="enable-background:new 0 0 100 100;" xml:space="preserve">
<style type="text/css">
	.st0{opacity:0.35;fill:#FFFFFF;}
	.st1{fill:#FFFFFF;}
</style>
<path class="st0" d="M131.3,24.4h-1H77.4h-1H23.6h-1h-52.9h-1h-53.9v51.2h53.9h1h52.9h1h52.8h1h52.9h1h53.8V24.4H131.3z M-31.3,74.6
	h-52.9V25.4h52.9V74.6z M22.6,74.6h-52.9V25.4h52.9V74.6z M76.4,74.6H23.6V25.4h52.8V74.6z M130.3,74.6H77.4V25.4h52.9V74.6z
	 M184.1,74.6h-52.8V25.4h52.8V74.6z"/>
<path class="st1" d="M26.7,28.5v43h46.6v-43H26.7z M69.7,67.9H30.3V54.7l10.8-7.8l10.8,11.5l9-4.5l8.8,6.1V67.9z"/>
<path class="st0" d="M80.6,28.5v43h46.6v-43H80.6z M123.5,67.9H84.2V54.7L95,46.9l10.8,11.5l9-4.5l8.8,6.1V67.9z"/>
<path class="st0" d="M-27.1,28.5v43h46.6v-43H-27.1z M15.8,67.9h-39.3V54.7l10.8-7.8L-2,58.3l9-4.5l8.8,6.1V67.9z"/>
<path class="st0" d="M-81,28.5v43h46.6v-43H-81z M-38,67.9h-39.3V54.7l10.8-7.8l10.8,11.5l9-4.5l8.8,6.1V67.9z"/>
<path class="st0" d="M134.4,28.5v43H181v-43H134.4z M177.4,67.9H138V54.7l10.8-7.8l10.8,11.5l9-4.5l8.8,6.1V67.9z"/>
</svg>
